<?xml version="1.0" encoding="UTF-8"?>
<svg width="400px" height="128px" viewBox="0 0 400 128" version="1.1" xmlns="http://www.w3.org/2000/svg" xmlns:xlink="http://www.w3.org/1999/xlink" style="background: #000000;">
    <!-- Generator: Sketch 46.2 (44496) - http://www.bohemiancoding.com/sketch -->
    <title>banner</title>
    <desc>Created with Sketch.</desc>
    <defs></defs>
    <g id="Page-1" stroke="none" stroke-width="1" fill="none" fill-rule="evenodd">
        <g id="banner">
            <g id="qihuju" transform="translate(256.000000, 6.000000)" fill-rule="nonzero" fill="#FFFFFF">
                <g id="Group" transform="translate(61.500000, 40.000000) scale(-1, 1) rotate(-180.000000) translate(-61.500000, -40.000000) ">
                    <path d="M58.1465149,79.9272198 C54.6763869,79.6797671 50.2293741,78.6754003 47.4591038,77.496361 C47.1966572,77.3799127 46.9196302,77.2925764 46.8467283,77.2925764 C46.5697013,77.2925764 43.128734,75.6477438 41.8165007,74.8908297 C41.3353485,74.6142649 40.8396159,74.3377001 40.722973,74.279476 C40.5188478,74.1775837 39.148293,73.2605531 38.083926,72.503639 C35.9406117,70.9752547 33.0391181,68.3406114 31.2603129,66.3027656 C29.8751778,64.7307132 27.8485064,61.9068413 27.163229,60.6259098 C27.0757468,60.4657933 26.886202,60.1455604 26.7403983,59.8981077 C26.4633713,59.4614265 25.151138,56.8850073 24.7137269,55.8951965 C23.970128,54.2358079 23.3285917,52.3871907 22.8036984,50.4366812 C22.6141536,49.7088792 21.9142959,48.3114993 21.1998578,47.2343523 C19.5376956,44.7307132 17.1173542,42.7802038 14.4054054,41.7467249 C12.5391181,41.0334789 12.6849218,41.0480349 6.60490754,41.0480349 C3.44096728,41.0480349 0.772759602,40.9898108 0.685277383,40.9315866 C0.349928876,40.69869 0.0437411095,40.0873362 0.0437411095,39.636099 C0.0437411095,38.6462882 -1.80796586,38.7190684 23.9847084,38.7190684 C46.9633713,38.7190684 47.269559,38.7190684 47.4299431,38.4279476 C47.5174253,38.2823872 47.6194879,37.8311499 47.663229,37.4526929 C47.7215505,37.0742358 47.9110953,36.3027656 48.1152205,35.7350801 C48.3047653,35.1819505 48.5088905,34.5851528 48.5672119,34.4250364 C48.6109531,34.2649199 48.8296586,33.8136827 49.0629445,33.4352256 C49.2816501,33.0567686 49.4711949,32.7074236 49.4711949,32.6491994 C49.4711949,32.5327511 50.9146515,30.713246 51.3812233,30.2328967 C52.0665007,29.5633188 53.3204125,28.5152838 53.6266003,28.3697234 C53.7869844,28.2969432 54.1223329,28.1077147 54.3556188,27.9621543 C56.7759602,26.4046579 60.0128023,25.7350801 63.1767425,26.1280932 C65.2179943,26.3755459 66.3261024,26.7103348 68.1340683,27.6419214 C70.2336415,28.7045124 72.3186344,30.6695779 73.6308677,32.8238719 C74.0245377,33.4643377 74.8410384,35.2547307 74.8410384,35.4585153 C74.8410384,35.5749636 74.9285206,35.8515284 75.0451636,36.069869 C75.1472262,36.2882096 75.2784495,36.797671 75.3221906,37.1906841 C75.3659317,37.5982533 75.4825747,38.1077147 75.5846373,38.3260553 L75.7596017,38.7190684 L99.029872,38.7190684 C124.924609,38.7190684 122.956259,38.6462882 122.956259,39.6797671 C122.956259,39.985444 122.825036,40.363901 122.650071,40.5822416 L122.343883,40.9752547 L116.497155,41.0480349 C111.379445,41.1062591 110.519203,41.1499272 109.688122,41.3828239 C109.163229,41.5429403 108.682077,41.7176128 108.594595,41.790393 C108.521693,41.8631732 108.390469,41.9213974 108.288407,41.9213974 C108.069701,41.9213974 106.976174,42.4308588 106.407539,42.7947598 C106.174253,42.9548763 105.868065,43.1295488 105.751422,43.1732169 C105.63478,43.231441 105.24111,43.5080058 104.8766,43.7991266 C103.243599,45.0800582 101.741821,46.9141194 100.969061,48.5443959 C100.400427,49.7525473 100.210882,50.2328967 100.210882,50.4512373 C100.210882,50.8296943 99.7443101,52.2270742 98.636202,55.0946143 C98.3883357,55.7496361 97.6301565,57.4526929 97.4406117,57.7874818 C97.3677098,57.9039301 97.1635846,58.2969432 96.9886202,58.6608443 C96.5366287,59.5633188 94.9182077,62.2125182 94.262091,63.1149927 C92.1187767,66.055313 89.2172831,69.1703057 86.9427454,70.9752547 C86.3449502,71.441048 85.8200569,71.8777293 85.7763158,71.9213974 C85.6742532,72.0524017 82.5540541,74.1484716 82.277027,74.279476 C82.1603841,74.3377001 81.8687767,74.5123726 81.6209104,74.6724891 C81.0668563,75.0218341 77.6113087,76.7248908 76.7364865,77.0596798 C76.3719772,77.2052402 75.890825,77.4090247 75.6721195,77.5254731 C75.4388336,77.6419214 75.1618065,77.7292576 75.059744,77.7292576 C74.943101,77.7292576 74.6369132,77.8165939 74.3744666,77.9330422 C73.0039118,78.5007278 70.1753201,79.1848617 67.1134424,79.6943231 C65.4950213,79.9563319 60.4793741,80.0873362 58.1465149,79.9272198 Z M76.4157183,56.3464338 L92.2062589,56.2590975 L92.4832859,55.7496361 C92.9498578,54.8908297 93.7955192,52.9403202 94.3058321,51.5283843 C94.7286629,50.349345 95.1806543,48.7190684 95.6180654,46.7248908 C95.9534139,45.1673945 96.6095306,43.944687 97.6301565,42.9257642 C98.1113087,42.4454148 98.636202,41.9796215 98.8111664,41.9068413 C98.9715505,41.8340611 99.2194168,41.7176128 99.3360597,41.6448326 C99.4527027,41.5720524 99.6714083,41.4701601 99.8172119,41.426492 C99.9630156,41.3828239 100.035917,41.2809316 99.9921764,41.1935953 C99.8755334,41.0043668 23.2848506,40.9898108 23.1682077,41.1790393 C23.1098862,41.2518195 23.3869132,41.4556041 23.7660028,41.6448326 C24.757468,42.125182 26.1280228,43.5516739 26.6820768,44.6870451 C27.163229,45.705968 27.6006401,47.0014556 27.6006401,47.496361 C27.6006401,47.7874818 27.9068279,48.9519651 28.2130156,49.8544396 C28.2859175,50.1018923 28.4025605,50.4949054 28.4754623,50.727802 C28.621266,51.2518195 28.8837127,52.0087336 29.1607397,52.6637555 C29.6564723,53.8719068 29.7731152,54.1484716 30.2834282,55.1965066 C30.5750356,55.8078603 30.8958037,56.3464338 30.9978663,56.3901019 C31.2311522,56.4774381 56.6738976,56.4628821 76.4157183,56.3464338 Z M66.6468706,37.13246 C66.6760313,35.8951965 66.6322902,35.4294032 66.5010669,35.342067 C66.2677809,35.1965066 62.28734,35.1965066 62.0540541,35.342067 C61.8645092,35.4585153 61.7478663,38.4279476 61.9374111,38.7045124 C61.9957326,38.8209607 62.7393314,38.8646288 64.3140114,38.8355167 L66.6031294,38.7918486 L66.6468706,37.13246 Z" id="Shape"></path>
                    <path d="M79.3172119,35.3129549 C79.200569,35.007278 79.5504979,34.6870451 80.1191323,34.5705968 C80.3815789,34.5123726 80.9647937,34.3813683 81.4022048,34.2503639 C81.8396159,34.1339156 82.5394737,33.944687 82.9331437,33.8427948 C83.341394,33.7409025 84.0558321,33.5371179 84.5369844,33.4061135 C86.4032717,32.8966521 87.0885491,32.7074236 89.5672119,32.0669578 C90.004623,31.9505095 90.5586771,31.8049491 90.791963,31.7321689 C91.302276,31.5720524 91.46266,31.6448326 91.46266,32.0815138 C91.46266,32.4163028 90.9669275,32.7510917 90.4711949,32.7510917 C90.3399716,32.7510917 89.9317212,32.8384279 89.5672119,32.9548763 C89.2027027,33.0713246 88.4882646,33.2751092 87.9633713,33.4061135 C87.0302276,33.6390102 86.3886913,33.8136827 84.6827881,34.279476 C84.2016358,34.4104803 83.4434566,34.6142649 83.0060455,34.7307132 C82.5686344,34.8471616 81.9125178,35.0363901 81.5480085,35.1528384 C81.1834993,35.2692868 80.5565434,35.4002911 80.148293,35.4585153 C79.5504979,35.5312955 79.3901138,35.5021834 79.3172119,35.3129549 Z" id="Shape"></path>
                    <path d="M22.0163585,34.992722 C21.8559744,34.8326055 21.8997155,33.4643377 22.0746799,32.8966521 C22.1475818,32.6200873 22.2788051,32.0232897 22.351707,31.5866084 C22.4246088,31.1499272 22.628734,30.3347889 22.7891181,29.7671033 C22.9640825,29.2139738 23.1536273,28.5152838 23.2265292,28.2387191 C23.2848506,27.9621543 23.4889758,27.3653566 23.6639403,26.9286754 C23.8389047,26.4919942 24.0284495,25.9679767 24.1013514,25.7641921 C24.5679232,24.4541485 25.5739687,22.2416303 26.3467283,20.8879185 C26.5216927,20.5676856 26.7987198,20.0727802 26.9591038,19.7962154 C27.2944523,19.1848617 28.9274538,16.6957787 29.0586771,16.5938865 C29.1024182,16.5502183 29.3065434,16.2882096 29.4960882,16.0116448 C29.9189189,15.4002911 32.1059744,12.86754 33.0974395,11.8631732 C33.8410384,11.0917031 35.794808,9.35953421 36.6404694,8.70451237 C37.6756757,7.91848617 39.5565434,6.55021834 39.6294452,6.55021834 C39.658606,6.55021834 39.9647937,6.36098981 40.3147226,6.12809316 C41.7727596,5.15283843 44.863798,3.60989811 46.8467283,2.83842795 C47.2112376,2.70742358 47.663229,2.53275109 47.8381935,2.45997089 C52.3872688,0.684133916 59.7940967,-0.363901019 64.1973684,0.131004367 C65.0430299,0.232896652 66.2532006,0.363901019 66.8947368,0.436681223 C68.556899,0.611353712 70.3065434,0.975254731 72.3623755,1.55749636 C73.5871266,1.90684134 75.4825747,2.53275109 76.2699147,2.86754003 C83.4726174,5.83697234 89.1152205,10.1601164 93.6351351,16.1572052 C94.6266003,17.4672489 95.4285206,18.6608443 95.836771,19.4323144 C95.9242532,19.5924309 96.113798,19.9272198 96.2596017,20.1601164 C96.5512091,20.5967977 97.8926031,23.2896652 98.242532,24.0902475 C98.3445946,24.3377001 98.5341394,24.7598253 98.6507824,25.0363901 C98.7674253,25.3129549 98.9715505,25.7933042 99.1027738,26.0989811 C99.2339972,26.4046579 99.3360597,26.7394469 99.3360597,26.8558952 C99.3360597,26.9723435 99.423542,27.2780204 99.5401849,27.5400291 C99.6568279,27.8020378 99.8609531,28.4133916 99.9921764,28.8937409 C100.1234,29.3740902 100.327525,30.0727802 100.444168,30.4366812 C100.560811,30.8151383 100.648293,31.2663755 100.648293,31.4556041 C100.648293,31.6448326 100.735775,32.1106259 100.852418,32.4745269 C101.027383,33.0422125 101.158606,34.3231441 101.100284,34.9053857 C101.085704,35.1528384 96.2596017,35.1528384 96.0117354,34.9053857 C95.9096728,34.8034934 95.836771,34.5414847 95.836771,34.294032 C95.836771,33.9010189 95.7347084,33.4206696 95.2681366,31.5866084 C95.166074,31.2227074 95.0348506,30.69869 94.9619488,30.4221252 C94.8161451,29.7816594 94.378734,28.5298399 93.7955192,27.0742358 C93.43101,26.1426492 91.85633,22.9694323 91.4480797,22.3435226 C91.302276,22.1106259 91.1127312,21.775837 91.0252489,21.6157205 C90.8065434,21.1790393 89.1589616,18.937409 88.2403983,17.8165939 C87.1322902,16.4483261 85.1201991,14.4541485 83.851707,13.4352256 C83.2684922,12.9694323 82.7581792,12.5618632 82.7144381,12.5181951 C82.5832148,12.3871907 80.5273826,10.9170306 80.4690612,10.9170306 C80.4399004,10.9170306 80.0608108,10.6841339 79.6379801,10.4075691 C79.2151494,10.1310044 78.4715505,9.69432314 77.9758179,9.46142649 C77.4946657,9.2139738 76.9989331,8.95196507 76.8822902,8.87918486 C76.4740398,8.64628821 74.6952347,7.86026201 74.5640114,7.86026201 C74.4911095,7.86026201 74.2432432,7.77292576 74.0099573,7.65647744 C73.5725462,7.43813683 72.8435277,7.17612809 72.14367,6.98689956 C71.9103841,6.91411936 71.5167141,6.79767103 71.2688478,6.71033479 C68.9359886,5.92430859 64.7222617,5.31295488 61.5,5.31295488 C57.6799431,5.31295488 52.8100996,6.1426492 50.2293741,7.21979622 C49.9669275,7.33624454 49.6607397,7.42358079 49.5440967,7.42358079 C49.4420341,7.42358079 49.1650071,7.51091703 48.9317212,7.62736536 C48.7130156,7.72925764 48.2901849,7.91848617 48.0131579,8.0349345 C47.1820768,8.39883552 44.470128,9.75254731 44.0035562,10.0436681 C43.7702703,10.2037846 43.4640825,10.3784571 43.3474395,10.4366812 C42.3997155,10.8879185 39.2503556,13.2896652 37.7339972,14.7307132 C34.9928876,17.3071325 32.8933144,20.014556 30.9541252,23.4352256 C30.35633,24.4687045 29.1753201,27.1179039 28.7816501,28.2387191 C28.0088905,30.4657933 27.2215505,33.4788937 27.1340683,34.5705968 L27.0903272,35.007278 L24.5970839,35.0509461 C23.2411095,35.0655022 22.0746799,35.0363901 22.0163585,34.992722 Z" id="Shape"></path>
                    <path d="M77.4946657,30.6259098 C77.5384068,30.2765648 78.0049787,29.9126638 79.2880512,29.2576419 C79.4484353,29.1703057 79.8129445,28.9665211 80.0899716,28.8064047 C80.3669986,28.6317322 80.8918919,28.3406114 81.2564011,28.1368268 C81.6209104,27.9475983 82.116643,27.6564774 82.3499289,27.496361 C82.5977952,27.3508006 82.9185633,27.1615721 83.0789474,27.0742358 C83.2393314,26.9868996 83.6038407,26.783115 83.8808677,26.6229985 C84.1578947,26.4483261 84.6827881,26.1572052 85.0472973,25.9534207 C85.4118065,25.7641921 85.9075391,25.4730713 86.140825,25.3275109 C87.0593883,24.7598253 87.9633713,24.3085881 88.1820768,24.3085881 C88.3570413,24.3085881 88.4007824,24.4250364 88.3716216,24.7016012 C88.3278805,25.0509461 87.9779516,25.371179 87.2343528,25.720524 C87.1177098,25.7787482 86.5636558,26.084425 85.9950213,26.419214 C85.4409673,26.7394469 84.8723329,27.0596798 84.7556899,27.1179039 C84.6390469,27.1761281 84.3474395,27.3508006 84.0995733,27.510917 C83.8662873,27.6710335 83.5600996,27.845706 83.4434566,27.9039301 C83.3268137,27.9621543 82.7727596,28.2823872 82.2041252,28.6026201 C81.6500711,28.937409 81.0814367,29.2430859 80.9647937,29.30131 C80.8481508,29.3595342 80.5565434,29.5342067 80.3086771,29.6943231 C80.0753912,29.8544396 79.7692034,30.0291121 79.6525605,30.0873362 C79.5359175,30.1455604 79.1130868,30.363901 78.7339972,30.5967977 C77.8300142,31.1208151 77.4363442,31.1353712 77.4946657,30.6259098 Z" id="Shape"></path>
                    <path d="M74.4036273,26.768559 C74.4036273,26.3464338 82.9039829,17.860262 83.2539118,17.9330422 C83.9975107,18.0640466 83.6038407,18.558952 79.3317923,22.8238719 C76.2407539,25.8951965 74.9722617,27.0742358 74.7389758,27.0742358 C74.4911095,27.0742358 74.4036273,26.9868996 74.4036273,26.768559 Z" id="Shape"></path>
                    <path d="M70.6564723,24.0611354 C70.3502845,23.944687 70.4377667,23.6681223 71.0938834,22.5327511 C71.4438122,21.9505095 71.7645804,21.3682678 71.8229018,21.2518195 C71.8812233,21.1353712 72.0561878,20.8442504 72.2165718,20.5967977 C72.3769559,20.363901 72.5519203,20.0582242 72.6102418,19.9417758 C72.6685633,19.8253275 72.9893314,19.272198 73.3100996,18.7045124 C73.6454481,18.1513828 73.9516358,17.5836972 74.0099573,17.4672489 C74.0682788,17.3508006 74.2432432,17.0596798 74.4036273,16.8122271 C74.5640114,16.5793304 74.7535562,16.2445415 74.8410384,16.084425 C74.9285206,15.9243086 75.1326458,15.5604076 75.2930299,15.2838428 C75.4679943,15.007278 75.7596017,14.4687045 75.9637269,14.0902475 C76.3865576,13.2896652 76.6490043,13.0422125 76.955192,13.1586608 C77.2322191,13.2605531 77.2322191,13.6535662 76.955192,14.1193595 C76.8385491,14.3231441 76.6927454,14.5851528 76.6344239,14.7016012 C76.5761024,14.8180495 76.2553343,15.3857351 75.9345661,15.9388646 C75.5992176,16.5065502 75.2930299,17.0596798 75.2347084,17.1761281 C75.1763869,17.2925764 75.0014225,17.5982533 74.8410384,17.8311499 C74.6806543,18.0786026 74.5056899,18.3697234 74.4473684,18.4861718 C74.3307255,18.7481805 72.7268848,21.5138282 72.5081792,21.8340611 C72.420697,21.9505095 72.2894737,22.1834061 72.2165718,22.3435226 C71.4292319,23.8719068 71.0938834,24.2503639 70.6564723,24.0611354 Z" id="Shape"></path>
                    <path d="M66.0199147,22.125182 C65.9178521,21.9505095 66.0053343,21.3828239 66.311522,20.3056769 C66.7343528,18.7772926 67.1134424,17.3799127 67.6383357,15.4294032 C68.9651494,10.3784571 69.0380512,10.1310044 69.3588193,10.0727802 C69.504623,10.0436681 69.6795875,10.0727802 69.7670697,10.1601164 C69.898293,10.2911208 69.8691323,10.5094614 69.3733997,12.2998544 C69.2713371,12.7074236 69.0672119,13.4497817 68.9214083,13.9737991 C68.7901849,14.4978166 68.5860597,15.2838428 68.4694168,15.720524 C68.3527738,16.1572052 68.163229,16.8558952 68.0611664,17.2489083 C67.9591038,17.6564774 67.7549787,18.3697234 67.6237553,18.8500728 C67.098862,20.7569141 66.9822191,21.1935953 66.8655761,21.6885007 C66.7343528,22.2125182 66.2386202,22.4745269 66.0199147,22.125182 Z" id="Shape"></path>
                    <path d="M61.1646515,21.5138282 C61.0334282,21.3828239 60.9896871,19.8107715 60.9896871,15.342067 C60.9896871,9.03930131 61.0042674,8.87918486 61.6312233,9.11208151 C61.8353485,9.19941776 61.8645092,9.79621543 61.8645092,15.2692868 C61.8645092,21.1935953 61.8353485,21.6885007 61.4270982,21.6885007 C61.383357,21.6885007 61.2667141,21.6157205 61.1646515,21.5138282 Z" id="Shape"></path>
                </g>
            </g>
            <text id="奇忽·科幻·游戏·艺术·区块链" font-family="YouSheBiaoTiHei" font-size="24" font-weight="normal" fill="#FFFFFF">
                <tspan x="21.06" y="116">奇忽·科幻·游戏·艺术·区块链</tspan>
            </text>
            <g id="sign" transform="translate(21.000000, 22.000000)">
                <text id="奇忽局QIHUJU" font-family="YouSheBiaoTiHei" font-size="36" font-weight="normal" fill="#FFFFFF">
                    <tspan x="0.264" y="36">奇忽局</tspan>
                    <tspan x="99.624" y="36" font-size="32">QIHUJU</tspan>
                </text>
                <path d="M6,42.5693534 C17.2407849,48.758439 33.4652895,49.0182555 47.480277,48.758439 C117.581713,47.4588654 158.299948,37.6940957 180.159831,37.1208545 C213.795113,36.238822 194.47254,40.3075504 186.315681,45.3213306 C182.105091,47.909456 190.612925,48.3407034 205.290398,45.3213306 C210.686684,44.211235 220.561931,41.477743 234.916139,37.1208545" id="Path-2" stroke="#FFFFFF" stroke-width="2"></path>
            </g>
        </g>
    </g>
</svg>