<?xml version="1.0" encoding="UTF-8"?>
<svg width="256px" height="256px" viewBox="0 0 256 256" version="1.1" xmlns="http://www.w3.org/2000/svg" xmlns:xlink="http://www.w3.org/1999/xlink">
    <!-- Generator: Sketch 46.2 (44496) - http://www.bohemiancoding.com/sketch -->
    <title>logo-no-text</title>
    <desc>Created with Sketch.</desc>
    <defs></defs>
    <g id="Page-1" stroke="none" stroke-width="1" fill="none" fill-rule="evenodd">
        <g id="logo-no-text" fill-rule="nonzero" fill="#000000">
            <g id="qihuju" transform="translate(8.000000, 50.000000)">
                <g id="Group" transform="translate(120.500000, 78.500000) scale(-1, 1) rotate(-180.000000) translate(-120.500000, -78.500000) ">
                    <path d="M113.92935,156.857169 C107.130156,156.371543 98.4169037,154.400473 92.9889758,152.086608 C92.4747511,151.858079 91.9319583,151.686681 91.7891181,151.686681 C91.2463253,151.686681 84.5042674,148.458697 81.9331437,146.973253 C80.9903983,146.430495 80.0190849,145.887737 79.7905405,145.773472 C79.390588,145.573508 76.705192,143.773836 74.619725,142.288392 C70.4202229,139.288937 64.7351826,134.11845 61.2498815,130.119178 C58.5359175,127.034025 54.5649597,121.492176 53.2222617,118.978348 C53.0508535,118.664119 52.6794689,118.035662 52.3937885,117.550036 C51.8509957,116.693049 49.279872,111.636827 48.4228307,109.694323 C46.9658606,106.437773 45.7088668,102.809862 44.6804173,98.9819869 C44.3090327,97.5536754 42.9377667,94.8113173 41.5379327,92.6974163 C38.2811759,87.7840247 33.538881,83.9561499 28.2252252,81.9279476 C24.5685159,80.5282023 24.8541963,80.5567686 12.9413229,80.5567686 C6.74205785,80.5567686 1.51410621,80.4425036 1.34269796,80.3282387 C0.685633001,79.871179 0.0857041252,78.6713974 0.0857041252,77.7858443 C0.0857041252,75.8433406 -3.54243717,75.9861718 46.9944286,75.9861718 C92.0176624,75.9861718 92.6175913,75.9861718 92.9318397,75.4148472 C93.103248,75.1291849 93.3032243,74.2436317 93.3889284,73.5009098 C93.5032006,72.7581878 93.8745851,71.2441776 94.2745377,70.1300946 C94.6459222,69.0445779 95.0458748,67.8733624 95.160147,67.5591339 C95.2458511,67.2449054 95.6743717,66.3593523 96.1314604,65.6166303 C96.559981,64.8739083 96.9313656,64.1883188 96.9313656,64.0740539 C96.9313656,63.845524 99.7596017,60.2747453 100.673779,59.3320597 C102.016477,58.0180131 104.473329,55.9612445 105.073257,55.6755822 C105.387506,55.5327511 106.044571,55.1613901 106.50166,54.8757278 C111.243954,51.8191412 117.58606,50.5050946 123.785325,51.2763828 C127.784851,51.7620087 129.956022,52.419032 133.498459,54.2472707 C137.612257,56.3326055 141.697487,60.1890466 144.268611,64.4168486 C145.039948,65.6737627 146.639758,69.187409 146.639758,69.5873362 C146.639758,69.8158661 146.811166,70.3586245 147.039711,70.7871179 C147.239687,71.2156114 147.496799,72.2154294 147.582504,72.9867176 C147.668208,73.7865721 147.896752,74.7863901 148.096728,75.2148836 L148.439545,75.9861718 L194.034139,75.9861718 C244.770982,75.9861718 240.914296,75.8433406 240.914296,77.8715429 C240.914296,78.4714338 240.657183,79.2141557 240.314367,79.6426492 L239.714438,80.4139374 L228.258653,80.5567686 C218.231271,80.6710335 216.545756,80.7567322 214.917378,81.2137918 C213.888928,81.5280204 212.946183,81.8708151 212.774775,82.0136463 C212.631935,82.1564774 212.374822,82.2707424 212.174846,82.2707424 C211.746325,82.2707424 209.603722,83.2705604 208.489569,83.9847162 C208.03248,84.2989447 207.432551,84.6417394 207.204007,84.7274381 C206.975462,84.8417031 206.204125,85.3844614 205.489924,85.955786 C202.290303,88.4696143 199.347795,92.0689592 197.833689,95.268377 C196.719535,97.6393741 196.348151,98.5820597 196.348151,99.0105531 C196.348151,99.7532751 195.433973,102.495633 193.262802,108.12318 C192.777146,109.408661 191.291607,112.75091 190.920223,113.407933 C190.777383,113.636463 190.37743,114.407751 190.034614,115.121907 C189.149004,116.893013 185.977952,122.092067 184.69239,123.863173 C180.492888,129.633552 174.807847,135.746725 170.351233,139.288937 C169.179943,140.203057 168.151494,141.060044 168.065789,141.145742 C167.865813,141.402838 161.752252,145.516376 161.209459,145.773472 C160.980915,145.887737 160.409554,146.230531 159.923898,146.54476 C158.838312,147.230349 152.067686,150.572598 150.353604,151.229622 C149.639403,151.515284 148.696657,151.915211 148.268137,152.143741 C147.811048,152.372271 147.268255,152.543668 147.068279,152.543668 C146.839734,152.543668 146.239806,152.715066 145.725581,152.943595 C143.040185,154.057678 137.497985,155.400291 131.498696,156.400109 C128.327643,156.914301 118.500237,157.171397 113.92935,156.857169 Z M149.725107,110.579876 L180.664296,110.408479 L181.207089,109.408661 C182.121266,107.723253 183.778212,103.895378 184.778094,101.124454 C185.606567,98.8105895 186.492176,95.6111718 187.349218,91.6975983 C188.006283,88.6410116 189.291844,86.2414483 191.291607,84.2418122 C192.234353,83.2991266 193.262802,82.3850073 193.605619,82.2421761 C193.919867,82.099345 194.405524,81.8708151 194.634068,81.727984 C194.862613,81.5851528 195.291133,81.3851892 195.576814,81.2994905 C195.862494,81.2137918 196.005334,81.0138282 195.91963,80.8424309 C195.691086,80.4710699 45.6231626,80.4425036 45.3946183,80.8138646 C45.2803461,80.9566958 45.8231389,81.356623 46.565908,81.727984 C48.5085349,82.6706696 51.1939308,85.4701601 52.2795164,87.6983261 C53.2222617,89.6979622 54.079303,92.2403566 54.079303,93.2116084 C54.079303,93.782933 54.6792319,96.0682314 55.2791607,97.8393377 C55.4220009,98.3249636 55.6505453,99.0962518 55.7933855,99.5533115 C56.0790659,100.581696 56.5932907,102.06714 57.1360835,103.35262 C58.1073969,105.723617 58.3359412,106.266376 59.3358227,108.323144 C59.9071835,109.522926 60.5356804,110.579876 60.7356567,110.665575 C61.1927454,110.836972 111.043978,110.808406 149.725107,110.579876 Z M130.584519,72.8724527 C130.641655,70.4443231 130.555951,69.5302038 130.298838,69.3588064 C129.84175,69.0731441 122.042674,69.0731441 121.585586,69.3588064 C121.214201,69.5873362 120.985657,75.4148472 121.357041,75.9576055 C121.471313,76.1861354 122.928284,76.2718341 126.013632,76.2147016 L130.498815,76.1290029 L130.584519,72.8724527 Z" id="Shape"></path>
                    <path d="M155.410147,69.3016739 C155.181603,68.7017831 155.867236,68.0733261 156.981389,67.8447962 C157.495614,67.7305313 158.638336,67.4734352 159.495377,67.2163392 C160.352418,66.9878093 161.723684,66.6164483 162.495021,66.4164847 C163.294927,66.2165211 164.694761,65.8165939 165.637506,65.5594978 C169.294215,64.5596798 170.636913,64.1883188 175.49348,62.9314047 C176.350522,62.7028748 177.436107,62.4172125 177.893196,62.2743814 C178.893077,61.9601528 179.207326,62.102984 179.207326,62.9599709 C179.207326,63.6169942 178.236012,64.2740175 177.264699,64.2740175 C177.007587,64.2740175 176.207681,64.4454148 175.49348,64.6739447 C174.779279,64.9024745 173.379445,65.3024017 172.350996,65.5594978 C170.522641,66.0165575 169.265647,66.3593523 165.923186,67.2734716 C164.980441,67.5305677 163.494903,67.9304949 162.637862,68.1590247 C161.78082,68.3875546 160.495258,68.7589156 159.781057,68.9874454 C159.066856,69.2159753 157.838431,69.4730713 157.038525,69.5873362 C155.867236,69.7301674 155.552987,69.6730349 155.410147,69.3016739 Z" id="Shape"></path>
                    <path d="M43.137743,68.6732169 C42.8234945,68.3589884 42.9091987,65.6737627 43.2520152,64.5596798 C43.3948554,64.0169214 43.6519678,62.845706 43.794808,61.9887191 C43.9376482,61.1317322 44.3376008,59.5320233 44.6518492,58.4179403 C44.9946657,57.3324236 45.3660503,55.9612445 45.5088905,55.4184862 C45.6231626,54.8757278 46.0231152,53.7045124 46.3659317,52.8475255 C46.7087482,51.9905386 47.0801328,50.9621543 47.222973,50.5622271 C48.1371503,47.9912664 50.1083452,43.6491994 51.6224514,40.99254 C51.9652679,40.364083 52.5080607,39.3928311 52.8223092,38.8500728 C53.4793741,37.6502911 56.6789948,32.7654658 56.9361072,32.5655022 C57.0218113,32.4798035 57.4217639,31.9656114 57.7931484,31.422853 C58.6216216,30.2230713 62.9068279,25.2525473 64.8494547,23.2814774 C66.3064248,21.7674672 70.1345424,18.3680859 71.7914889,17.0826055 C73.8198198,15.5400291 77.5050972,12.8548035 77.6479374,12.8548035 C77.7050735,12.8548035 78.3050024,12.4834425 78.9906354,12.0263828 C81.8474395,10.1124454 87.9038644,7.08442504 91.7891181,5.57041485 C92.5033191,5.31331878 93.3889284,4.97052402 93.7317449,4.82769287 C102.644974,1.34261281 117.157539,-0.71415575 125.785088,0.25709607 C127.442034,0.45705968 129.813182,0.71415575 131.070175,0.8569869 C134.326932,1.19978166 137.755097,1.91393741 141.783191,3.05658661 C144.182907,3.74217613 147.896752,4.97052402 149.439426,5.62754731 C163.552039,11.4550582 174.607871,19.9392285 183.463964,31.7085153 C185.406591,34.279476 186.977833,36.6219068 187.777738,38.135917 C187.949147,38.4501456 188.320531,39.1071689 188.606211,39.5642285 C189.177572,40.4212154 191.805832,45.705968 192.491465,47.2771106 C192.691441,47.7627365 193.062826,48.5911572 193.29137,49.1339156 C193.519915,49.6766739 193.919867,50.6193595 194.17698,51.2192504 C194.434092,51.8191412 194.634068,52.4761645 194.634068,52.7046943 C194.634068,52.9332242 194.805477,53.533115 195.034021,54.0473071 C195.262565,54.5614993 195.662518,55.7612809 195.91963,56.7039665 C196.176743,57.6466521 196.576695,59.0178311 196.805239,59.7319869 C197.033784,60.4747089 197.205192,61.360262 197.205192,61.731623 C197.205192,62.102984 197.3766,63.0171033 197.605145,63.7312591 C197.947961,64.8453421 198.205073,67.3591703 198.090801,68.5018195 C198.062233,68.9874454 188.606211,68.9874454 188.120555,68.5018195 C187.920578,68.3018559 187.777738,67.7876638 187.777738,67.3020378 C187.777738,66.5307496 187.577762,65.588064 186.663585,61.9887191 C186.463608,61.2745633 186.206496,60.246179 186.063656,59.7034207 C185.777975,58.4465066 184.920934,55.9898108 183.778212,53.1331878 C183.064011,51.3049491 179.978663,45.0775109 179.178758,43.849163 C178.893077,43.3921033 178.521693,42.7350801 178.350284,42.4208515 C177.921764,41.5638646 174.693575,37.1646652 172.893789,34.9650655 C170.722617,32.2798399 166.780228,28.3662664 164.294808,26.3666303 C163.152086,25.4525109 162.152205,24.6526565 162.066501,24.5669578 C161.809388,24.3098617 157.781294,21.4246725 157.667022,21.4246725 C157.609886,21.4246725 156.867117,20.9676128 156.038644,20.4248544 C155.210171,19.8820961 153.753201,19.0251092 152.781887,18.5680495 C151.839142,18.0824236 150.867828,17.5682314 150.639284,17.4254003 C149.839379,16.9683406 146.354078,15.4257642 146.096965,15.4257642 C145.954125,15.4257642 145.468468,15.2543668 145.01138,15.025837 C144.154339,14.5973435 142.725936,14.0831514 141.35467,13.7117904 C140.897582,13.5689592 140.126245,13.3404294 139.640588,13.169032 C135.069701,11.6264556 126.813537,10.4266739 120.5,10.4266739 C113.015173,10.4266739 103.473447,12.0549491 98.4169037,14.1688501 C97.902679,14.3973799 97.3027501,14.5687773 97.0742058,14.5687773 C96.8742295,14.5687773 96.3314367,14.7401747 95.874348,14.9687045 C95.4458274,15.1686681 94.6173542,15.5400291 94.0745614,15.768559 C92.446183,16.4827147 87.1325273,19.1393741 86.2183499,19.7106987 C85.7612613,20.0249272 85.1613324,20.367722 84.9327881,20.4819869 C83.0758653,21.36754 76.9051683,26.080968 73.934092,28.9090247 C68.5633001,33.9652475 64.4495021,39.2785662 60.6499526,45.9916303 C59.4786629,48.0198326 57.1646515,53.2188865 56.3933144,55.4184862 C54.8792082,59.7891194 53.3365339,65.702329 53.1651257,67.8447962 L53.0794215,68.7017831 L48.1942864,68.7874818 C45.5374585,68.816048 43.2520152,68.7589156 43.137743,68.6732169 Z" id="Shape"></path>
                    <path d="M151.839142,60.1033479 C151.924846,59.4177584 152.839023,58.7036026 155.353011,57.4181223 C155.667259,57.2467249 156.38146,56.8467977 156.924253,56.5325691 C157.467046,56.1897744 158.495495,55.6184498 159.209697,55.2185226 C159.923898,54.8471616 160.895211,54.275837 161.3523,53.9616084 C161.837956,53.6759461 162.466453,53.3045852 162.780702,53.1331878 C163.09495,52.9617904 163.809151,52.5618632 164.351944,52.2476346 C164.894737,51.9048399 165.923186,51.3335153 166.637387,50.9335881 C167.351588,50.5622271 168.322902,49.9909025 168.779991,49.7052402 C170.579777,48.5911572 172.350996,47.7056041 172.779516,47.7056041 C173.122333,47.7056041 173.208037,47.9341339 173.150901,48.4768923 C173.065197,49.1624818 172.379564,49.7909389 170.922594,50.4765284 C170.694049,50.5907933 169.608464,51.1906841 168.49431,51.8477074 C167.408725,52.4761645 166.294571,53.1046215 166.066027,53.2188865 C165.837482,53.3331514 165.266121,53.6759461 164.780465,53.9901747 C164.323376,54.3044032 163.723447,54.647198 163.494903,54.7614629 C163.266358,54.8757278 162.180773,55.5041849 161.066619,56.1326419 C159.981034,56.7896652 158.86688,57.389556 158.638336,57.503821 C158.409791,57.6180859 157.838431,57.9608806 157.352774,58.2751092 C156.895685,58.5893377 156.295756,58.9321325 156.067212,59.0463974 C155.838668,59.1606623 155.010194,59.5891557 154.267425,60.0462154 C152.496207,61.0745997 151.72487,61.1031659 151.839142,60.1033479 Z" id="Shape"></path>
                    <path d="M145.782717,52.5332969 C145.782717,51.7048763 162.437885,35.0507642 163.123518,35.1935953 C164.580488,35.4506914 163.809151,36.4219432 155.438715,44.7918486 C149.38229,50.8193231 146.896871,53.1331878 146.439782,53.1331878 C145.954125,53.1331878 145.782717,52.9617904 145.782717,52.5332969 Z" id="Shape"></path>
                    <path d="M138.44073,47.2199782 C137.840801,46.9914483 138.01221,46.44869 139.297771,44.220524 C139.983404,43.0778748 140.611901,41.9352256 140.726174,41.7066958 C140.840446,41.4781659 141.183262,40.9068413 141.497511,40.4212154 C141.811759,39.9641557 142.154576,39.3642649 142.268848,39.1357351 C142.38312,38.9072052 143.011617,37.8216885 143.640114,36.7076055 C144.297179,35.6220888 144.897108,34.5080058 145.01138,34.279476 C145.125652,34.0509461 145.468468,33.4796215 145.782717,32.9939956 C146.096965,32.536936 146.46835,31.8799127 146.639758,31.5656841 C146.811166,31.2514556 147.211119,30.5372999 147.525367,29.9945415 C147.868184,29.4517831 148.439545,28.3948326 148.839497,27.6521106 C149.667971,26.080968 150.182195,25.5953421 150.782124,25.8238719 C151.324917,26.0238355 151.324917,26.7951237 150.782124,27.7092431 C150.55358,28.1091703 150.267899,28.6233624 150.153627,28.8518923 C150.039355,29.0804221 149.410858,30.1945051 148.782361,31.2800218 C148.125296,32.3941048 147.525367,33.4796215 147.411095,33.7081514 C147.296823,33.9366812 146.954007,34.5365721 146.639758,34.9936317 C146.32551,35.4792576 145.982693,36.0505822 145.868421,36.2791121 C145.639877,36.7933042 142.497392,42.2208879 142.068872,42.849345 C141.897463,43.0778748 141.640351,43.5349345 141.497511,43.849163 C139.954836,46.8486172 139.297771,47.5913392 138.44073,47.2199782 Z" id="Shape"></path>
                    <path d="M129.356093,43.4206696 C129.156117,43.0778748 129.327525,41.9637918 129.927454,39.8498908 C130.755927,36.8504367 131.498696,34.1080786 132.527146,30.2802038 C135.126837,20.367722 135.269678,19.8820961 135.898174,19.7678311 C136.183855,19.7106987 136.526671,19.7678311 136.69808,19.9392285 C136.955192,20.1963246 136.898056,20.624818 135.926743,24.1384643 C135.726766,24.9383188 135.326814,26.3951965 135.041133,27.4235808 C134.784021,28.4519651 134.384068,29.9945415 134.155524,30.8515284 C133.92698,31.7085153 133.555595,33.0796943 133.355619,33.8509825 C133.155642,34.650837 132.75569,36.0505822 132.498578,36.9932678 C131.470128,40.735444 131.241584,41.5924309 131.013039,42.5636827 C130.755927,43.592067 129.784614,44.1062591 129.356093,43.4206696 Z" id="Shape"></path>
                    <path d="M119.842935,42.2208879 C119.585823,41.9637918 119.500119,38.878639 119.500119,30.1088064 C119.500119,17.7396288 119.528687,17.4254003 120.757112,17.88246 C121.157065,18.0538574 121.214201,19.2250728 121.214201,29.9659753 C121.214201,41.5924309 121.157065,42.5636827 120.35716,42.5636827 C120.271456,42.5636827 120.042911,42.4208515 119.842935,42.2208879 Z" id="Shape"></path>
                </g>
            </g>
        </g>
    </g>
</svg>