<?xml version="1.0" encoding="UTF-8"?>
<svg width="256px" height="256px" viewBox="0 0 256 256" version="1.1" xmlns="http://www.w3.org/2000/svg" xmlns:xlink="http://www.w3.org/1999/xlink" style="background: #FFFFFF;">
    <!-- Generator: Sketch 46.2 (44496) - http://www.bohemiancoding.com/sketch -->
    <title>logo-art-2</title>
    <desc>Created with Sketch.</desc>
    <defs></defs>
    <g id="Page-1" stroke="none" stroke-width="1" fill="none" fill-rule="evenodd">
        <g id="logo-art-2" fill-rule="nonzero" fill="#000000">
            <g id="agbsPU8Cmu" transform="translate(8.000000, 49.000000)">
                <g id="Group" transform="translate(120.500000, 79.000000) scale(-1, 1) rotate(-180.000000) translate(-120.500000, -79.000000) ">
                    <path d="M110.171429,156.953642 C93.8961039,154.860927 77.9337662,147.222517 68.7528139,137.177483 C58.8415584,126.4 46.6350649,102.856954 46.6350649,94.5907285 C46.6350649,92.0794702 46.3220779,91.8701987 43.8181818,92.4980132 C25.247619,97.1019868 6.57272727,94.1721854 2.2952381,85.9059603 C-1.25194805,79 1.25194805,68.6410596 6.67705628,67.3854305 C15.7536797,65.397351 15.7536797,65.397351 16.5883117,61.9443709 C17.2142857,59.7470199 18.4662338,58.0728477 20.2398268,57.2357616 C22.6393939,56.189404 23.161039,56.3986755 25.3519481,59.1192053 C26.7082251,60.8980132 27.8558442,63.0953642 27.8558442,64.1417219 C27.8558442,66.5483444 29.5251082,66.4437086 30.2554113,63.8278146 C30.7770563,61.8397351 34.1155844,60.7933775 34.1155844,62.5721854 C34.2199134,62.9907285 35.0545455,64.3509934 36.2021645,65.7112583 C38.1844156,68.013245 38.1844156,68.013245 41.6272727,66.1298013 C44.7571429,64.3509934 45.2787879,64.2463576 46.6350649,65.815894 C47.991342,67.2807947 48.304329,66.8622517 48.825974,62.6768212 C49.7649351,55.9801325 55.3987013,43.2145695 60.5108225,35.6807947 C63.0147186,32.2278146 68.2311688,25.9496689 72.195671,21.8688742 C78.5597403,15.2768212 81.0636364,13.602649 91.2878788,8.78940397 C106.415584,1.56953642 116.118182,-0.418543046 130.515584,0.418543046 C143.035065,1.15099338 148.877489,2.92980132 162.127273,10.2543046 C172.768831,16.0092715 177.985281,20.7178808 183.201732,28.984106 C187.479221,35.8900662 193.217316,49.3880795 194.88658,56.7125828 L196.242857,62.4675497 L207.197403,62.1536424 C221.281818,61.8397351 230.880087,64.3509934 236.82684,70.0013245 C240.478355,73.3496689 240.791342,74.186755 240.374026,77.7443709 C239.748052,82.3483444 235.574892,88.3125828 231.297403,90.5099338 C227.750216,92.2887417 215.543723,94.2768212 211.579221,93.6490066 C210.118615,93.3350993 205.945455,93.0211921 202.398268,92.7072848 C196.242857,92.3933775 195.825541,92.4980132 195.825541,94.5907285 C195.825541,96.8927152 190.71342,111.123179 188.105195,116.04106 C187.270563,117.50596 185.809957,120.540397 184.870996,122.633113 C181.845455,129.748344 171.308225,141.781457 164.839827,145.65298 C147.416883,155.907285 130.098268,159.569536 110.171429,156.953642 Z M125.71645,153.082119 C128.220346,151.512583 128.324675,149.524503 126.133766,148.792053 C125.403463,148.582781 124.881818,149.419868 124.881818,150.570861 C124.881818,153.082119 123.838528,153.396026 121.960606,151.512583 C120.917316,150.466225 120.082684,150.884768 117.787446,153.186755 L114.970563,156.011921 L119.143723,155.384106 C121.438961,154.965563 124.360173,153.919205 125.71645,153.082119 Z M137.088312,154.233113 C138.966234,153.919205 140.739827,153.291391 141.052814,152.768212 C141.365801,152.245033 140.218182,152.245033 138.235931,152.768212 C136.462338,153.396026 134.793074,153.605298 134.584416,153.500662 C134.375758,153.291391 135.001732,150.989404 135.940693,148.268874 C137.922944,142.304636 142.722078,137.909934 149.81645,135.503311 C154.719913,133.933775 155.241558,133.933775 157.954113,135.607947 C159.519048,136.549669 161.918615,138.537748 163.066234,140.002649 C165.048485,142.2 165.57013,142.304636 167.552381,141.049007 C169.638961,139.793377 171.412554,136.445033 170.995238,134.770861 C170.890909,134.247682 171.516883,133.933775 172.455844,133.933775 C173.394805,133.933775 173.91645,133.30596 173.603463,132.678146 C173.394805,131.945695 172.455844,131.422517 171.412554,131.631788 C170.473593,131.84106 169.74329,131.422517 169.74329,130.794702 C169.74329,130.271523 170.264935,129.748344 170.78658,129.748344 C171.412554,129.748344 171.82987,129.225166 171.82987,128.597351 C171.82987,127.760265 171.308225,127.864901 170.160606,128.806623 C169.012987,129.748344 168.7,131.108609 169.221645,133.724503 C169.74329,136.445033 169.430303,137.700662 167.865368,139.165563 C165.987446,140.944371 165.883117,140.944371 164.631169,139.060927 C162.753247,135.921854 157.119481,132.887417 153.363636,132.887417 C151.590043,132.887417 149.712121,132.364238 149.294805,131.631788 C148.877489,130.899338 148.981818,130.794702 149.712121,131.213245 C150.442424,131.631788 150.964069,131.422517 150.964069,130.690066 C150.964069,129.748344 151.277056,129.748344 152.424675,130.690066 C153.154978,131.317881 155.971861,132.050331 158.684416,132.364238 C161.292641,132.678146 164.735498,133.724503 166.300433,134.666225 C169.012987,136.445033 169.012987,136.445033 167.761039,134.038411 C164.839827,128.701987 153.259307,127.027815 146.790909,130.899338 C140.948485,134.352318 138.548918,137.177483 134.584416,144.397351 C132.497835,148.164238 129.680952,152.245033 128.116017,153.500662 L125.403463,155.907285 L129.576623,155.27947 C131.871861,154.965563 135.21039,154.54702 137.088312,154.233113 Z M111.319048,153.81457 C109.962771,152.977483 110.0671,152.663576 111.840693,151.303311 C114.344589,149.419868 116.431169,149.10596 114.657576,150.884768 C113.927273,151.617219 113.405628,152.55894 113.405628,153.082119 C113.405628,153.605298 114.135931,153.186755 115.074892,152.349669 C115.909524,151.407947 116.32684,150.256954 116.013853,149.629139 C115.179221,148.268874 112.362338,148.268874 112.362338,149.629139 C112.362338,150.256954 111.632035,150.675497 110.797403,150.675497 C109.962771,150.675497 109.232468,150.884768 109.232468,151.09404 C109.232468,151.303311 108.919481,152.245033 108.606494,153.186755 C108.084848,154.442384 108.606494,154.860927 110.380087,154.860927 C112.362338,154.860927 112.570996,154.651656 111.319048,153.81457 Z M107.458874,151.617219 C107.980519,149.629139 107.87619,149.629139 106.311255,150.989404 C104.224675,152.768212 101.825108,152.245033 102.65974,150.047682 C102.972727,149.210596 102.65974,148.582781 101.929437,148.582781 C101.303463,148.582781 101.094805,149.10596 101.407792,149.629139 C101.720779,150.256954 101.303463,150.675497 100.468831,150.675497 C99.6341991,150.675497 98.5909091,151.198675 98.1735931,151.82649 C97.7562771,152.55894 98.1735931,152.768212 99.4255411,152.349669 C100.57316,152.035762 102.138095,152.245033 102.972727,152.768212 C105.476623,154.337748 106.8329,154.023841 107.458874,151.617219 Z M96.4,149.10596 C95.565368,148.164238 94.7307359,148.059603 93.8961039,148.792053 C92.0181818,150.256954 93.1658009,151.617219 95.565368,150.989404 C97.234632,150.570861 97.338961,150.152318 96.4,149.10596 Z M147.103896,149.943046 C146.68658,148.896689 146.895238,148.478146 147.521212,148.896689 C148.147186,149.315232 149.920779,147.64106 151.381385,145.339073 C154.093939,141.258278 154.198268,141.049007 152.320346,139.688742 C150.129437,138.01457 149.190476,138.537748 150.755411,140.525828 C152.216017,142.2 149.607792,146.490066 147.208225,146.490066 C145.121645,146.490066 144.078355,149.629139 145.851948,150.780132 C147.834199,152.035762 147.834199,151.931126 147.103896,149.943046 Z M140.42684,148.896689 C141.47013,147.117881 141.47013,147.117881 141.574459,148.896689 C141.574459,151.198675 143.243723,151.198675 143.869697,148.792053 C144.182684,147.536424 143.55671,146.490066 141.991775,145.757616 C139.905195,144.815894 139.487879,145.025166 138.548918,147.64106 C137.401299,150.989404 138.757576,151.82649 140.42684,148.896689 Z M91.0792208,145.65298 C90.6619048,145.339073 89.8272727,145.65298 89.0969697,146.38543 C88.1580087,147.327152 88.1580087,147.850331 89.4099567,148.582781 C90.5575758,149.315232 91.0792208,149.10596 91.2878788,147.954967 C91.4965368,147.013245 91.3922078,146.071523 91.0792208,145.65298 Z M123.108225,146.490066 C122.795238,145.339073 123.108225,144.397351 123.734199,144.397351 C124.360173,144.397351 124.881818,144.815894 124.881818,145.443709 C124.881818,145.966887 125.925108,147.013245 127.177056,147.64106 L129.472294,148.896689 L127.594372,145.862252 L125.612121,142.827815 L127.80303,144.815894 C129.785281,146.594702 130.098268,146.594702 130.098268,145.129801 C130.098268,144.083444 129.472294,143.246358 128.84632,143.141722 C128.116017,143.141722 127.072727,142.93245 126.446753,142.93245 C123.316883,142.513907 122.690909,140.944371 123.421212,135.398675 C123.838528,131.422517 123.62987,129.225166 122.795238,128.178808 C119.978355,124.830464 122.795238,125.562914 126.342424,129.12053 C130.619913,133.515232 131.141558,133.619868 131.141558,130.58543 C131.037229,128.701987 129.680952,127.550993 124.67316,125.249007 C117.996104,122.21457 116.118182,122.21457 119.039394,125.039735 C120.917316,127.027815 121.230303,128.074172 119.561039,127.027815 C118.726407,126.609272 118.622078,127.13245 119.039394,128.806623 C119.352381,130.166887 119.352381,130.690066 119.039394,129.85298 C118.517749,128.701987 118.204762,128.701987 117.474459,129.85298 C116.952814,130.794702 116.744156,130.062252 117.057143,127.969536 C117.474459,124.411921 116.118182,122.423841 115.074892,125.039735 C114.761905,125.876821 114.970563,126.609272 115.492208,126.609272 C116.118182,126.609272 116.535498,127.13245 116.535498,127.864901 C116.535498,128.492715 115.805195,128.283444 114.657576,127.341722 C113.614286,126.295364 111.214719,125.562914 109.336797,125.562914 C107.458874,125.562914 104.954978,125.039735 103.70303,124.411921 C102.138095,123.574834 102.451082,124.307285 104.850649,126.4 C107.145887,128.597351 108.189177,130.58543 108.189177,132.678146 C108.189177,135.921854 104.850649,139.688742 101.407792,140.421192 C99.7385281,140.839735 100.051515,141.258278 103.285714,142.93245 C107.250216,144.815894 107.354545,144.815894 108.815152,142.827815 C109.649784,141.781457 110.275758,139.060927 110.275758,136.75894 C110.275758,132.154967 111.840693,128.701987 113.927273,128.701987 C116.118182,128.701987 116.639827,131.945695 115.492208,138.119205 C114.866234,141.153642 114.657576,143.874172 114.866234,144.188079 C116.118182,145.339073 117.578788,142.827815 117.578788,139.688742 C117.578788,137.700662 118.100433,135.817219 118.726407,135.503311 C120.604329,134.247682 121.125974,135.921854 119.978355,139.688742 C119.248052,141.990728 119.248052,143.350993 119.874026,143.350993 C120.395671,143.350993 120.5,143.874172 120.187013,144.397351 C119.874026,145.025166 120.082684,145.443709 120.604329,145.443709 C121.230303,145.443709 121.751948,146.38543 121.751948,147.64106 C121.751948,148.792053 122.169264,149.524503 122.690909,149.210596 C123.212554,148.896689 123.421212,147.64106 123.108225,146.490066 Z M114.866234,146.490066 C115.700866,145.65298 114.761905,145.548344 111.840693,145.966887 C106.415584,146.803974 101.407792,144.711258 95.461039,138.851656 C90.8705628,134.352318 85.8627706,125.458278 84.8194805,119.912583 C84.4021645,117.610596 84.6108225,117.296689 85.7584416,118.238411 C86.6974026,118.970861 87.3233766,119.075497 87.8450216,118.238411 C88.1580087,117.715232 87.6363636,117.087417 86.5930736,116.982781 C85.5497835,116.982781 84.0891775,116.77351 83.3588745,116.77351 C82.6285714,116.668874 81.1679654,115.203974 80.1246753,113.425166 C75.4298701,105.682119 63.1190476,101.392053 55.5030303,104.845033 C52.4774892,106.205298 52.3731602,106.41457 54.3554113,111.018543 C56.4419913,115.936424 57.1722944,116.459603 58.8415584,114.05298 C60.1978355,112.169536 60.1978355,111.541722 58.6329004,109.239735 C56.7549784,106.41457 57.2766234,104.42649 59.3632035,106.519205 C60.0935065,107.251656 62.2844156,107.460927 64.8926407,107.042384 C70.3177489,106.309934 75.7428571,108.716556 78.2467532,112.901987 C79.1857143,114.471523 79.7073593,116.145695 79.3943723,116.459603 C79.0813853,116.77351 79.8116883,117.296689 80.9593074,117.715232 C82.2112554,118.029139 83.3588745,119.389404 83.6718615,120.645033 C83.8805195,121.900662 84.6108225,125.66755 85.2367965,128.911258 C85.8627706,132.154967 87.1147186,135.398675 87.9493506,136.131126 C88.7839827,136.863576 89.2012987,138.328477 88.8883117,139.584106 C88.5753247,140.839735 88.6796537,141.258278 88.9926407,140.630464 C89.3056277,139.793377 91.6008658,140.839735 95.461039,143.350993 C98.6952381,145.548344 102.346753,147.536424 103.494372,147.850331 C106.519913,148.582781 113.614286,147.745695 114.866234,146.490066 Z M154.406926,146.490066 C154.719913,145.339073 155.554545,144.397351 156.180519,144.397351 C156.910823,144.397351 157.22381,145.129801 156.806494,146.280795 C156.180519,147.850331 156.180519,147.954967 157.745455,146.38543 C158.684416,145.548344 159.101732,143.978808 158.788745,143.037086 C158.162771,141.676821 157.641126,141.781457 155.0329,144.083444 C152.007359,146.803974 151.172727,148.582781 152.94632,148.582781 C153.467965,148.582781 154.093939,147.64106 154.406926,146.490066 Z M88.1580087,145.234437 C89.9316017,143.455629 89.7229437,142.304636 87.7406926,143.037086 C86.6974026,143.455629 85.4454545,142.93245 84.6108225,141.886093 C83.8805195,140.735099 82.7329004,140.316556 82.0025974,140.839735 C81.2722944,141.258278 80.9593074,141.153642 81.3766234,140.525828 C81.7939394,139.898013 81.1679654,139.165563 80.0203463,138.851656 C78.7683983,138.537748 77.9337662,138.956291 77.6207792,140.107285 C77.3077922,141.153642 77.0991342,140.944371 76.9948052,139.374834 C76.9948052,138.119205 76.1601732,136.75894 75.3255411,136.445033 C74.4909091,136.02649 74.0735931,135.398675 74.3865801,134.875497 C74.6995671,134.352318 75.3255411,134.143046 75.8471861,134.456954 C76.6818182,134.980132 80.0203463,130.58543 80.0203463,128.806623 C80.0203463,128.283444 79.0813853,128.074172 77.8294372,128.388079 C76.3688312,128.806623 76.0558442,129.225166 76.8904762,129.748344 C77.8294372,130.376159 77.8294372,131.108609 76.9948052,132.468874 C75.9515152,134.352318 75.9515152,134.352318 75.8471861,132.364238 C75.8471861,130.480795 75.7428571,130.480795 74.0735931,132.154967 C72.404329,133.724503 72.404329,134.143046 74.0735931,137.491391 C75.2212121,139.898013 77.4121212,141.990728 80.7506494,143.664901 C86.8017316,146.803974 86.5930736,146.803974 88.1580087,145.234437 Z M93.5831169,144.92053 C93.5831169,144.083444 93.1658009,143.350993 92.5398268,143.350993 C92.0181818,143.350993 91.8095238,144.083444 92.1225108,144.92053 C92.5398268,145.757616 92.9571429,146.490066 93.1658009,146.490066 C93.3744589,146.490066 93.5831169,145.757616 93.5831169,144.92053 Z M148.251515,143.141722 C149.086147,141.781457 148.981818,140.944371 147.938528,140.002649 C146.895238,138.851656 146.68658,139.060927 146.999567,140.735099 C147.208225,142.409272 146.790909,142.827815 144.495671,142.827815 C141.574459,142.723179 140.948485,143.350993 142.304762,144.815894 C143.55671,146.071523 146.999567,145.025166 148.251515,143.141722 Z M162.857576,141.886093 C162.335931,140.421192 157.954113,137.072848 156.806494,137.072848 C155.971861,137.072848 161.814286,143.246358 162.648918,143.246358 C163.066234,143.350993 163.170563,142.723179 162.857576,141.886093 Z M132.497835,140.211921 C132.080519,138.433113 131.663203,138.328477 130.411255,139.374834 C129.054978,140.421192 129.054978,140.735099 130.828571,141.362914 C131.871861,141.781457 132.810823,142.2 132.915152,142.2 C132.915152,142.304636 132.810823,141.362914 132.497835,140.211921 Z M136.149351,138.119205 C137.29697,136.235762 137.192641,136.02649 135.314719,136.02649 C133.958442,136.02649 133.228139,136.75894 133.228139,138.119205 C133.228139,139.270199 133.541126,140.211921 134.062771,140.211921 C134.480087,140.211921 135.419048,139.270199 136.149351,138.119205 Z M85.3411255,134.666225 C84.2978355,131.945695 81.3766234,129.329801 82.3155844,131.945695 C82.6285714,132.782781 82.4199134,134.352318 81.7939394,135.503311 C80.8549784,137.386755 80.9593074,137.491391 82.4199134,136.131126 C83.8805195,134.980132 84.2978355,134.980132 84.8194805,136.445033 C85.2367965,137.386755 85.6541126,138.01457 85.9670996,137.805298 C86.1757576,137.596026 85.8627706,136.131126 85.3411255,134.666225 Z M104.016017,137.072848 C105.685281,137.072848 105.78961,130.690066 104.120346,128.911258 C102.138095,126.818543 97.7562771,125.981457 97.7562771,127.655629 C97.7562771,128.283444 97.338961,128.597351 96.817316,128.283444 C95.0437229,127.13245 93.3744589,130.58543 94.1047619,133.933775 C94.9393939,137.596026 96.191342,137.909934 97.9649351,135.084768 C98.9038961,133.515232 99.5298701,133.30596 100.57316,134.143046 C101.720779,135.084768 101.720779,135.607947 100.677489,136.863576 C99.5298701,138.223841 99.6341991,138.433113 101.199134,137.805298 C102.242424,137.386755 103.494372,137.072848 104.016017,137.072848 Z M125.925108,137.072848 C125.925108,136.549669 125.507792,136.02649 124.881818,136.02649 C124.360173,136.02649 123.838528,136.549669 123.838528,137.072848 C123.838528,137.700662 124.360173,138.119205 124.881818,138.119205 C125.507792,138.119205 125.925108,137.700662 125.925108,137.072848 Z M70.4220779,133.515232 C70.0047619,131.736424 70.7350649,130.58543 72.925974,129.12053 C74.4909091,128.074172 75.8471861,126.713907 75.8471861,126.190728 C75.8471861,125.66755 75.1168831,125.876821 74.2822511,126.609272 C73.34329,127.341722 71.465368,127.655629 69.5874459,127.237086 C65.8316017,126.504636 65.4142857,128.283444 68.2311688,132.992053 C70.4220779,136.654305 71.0480519,136.863576 70.4220779,133.515232 Z M131.663203,134.980132 C131.350216,134.456954 130.098268,133.410596 128.950649,132.887417 C127.385714,132.050331 126.968398,132.154967 126.968398,133.30596 C126.968398,134.666225 128.429004,135.503311 131.454545,135.921854 C131.97619,135.921854 131.97619,135.607947 131.663203,134.980132 Z M138.861905,133.515232 C138.548918,132.678146 138.861905,131.736424 139.592208,131.213245 C140.42684,130.794702 140.635498,130.899338 140.113853,131.631788 C139.696537,132.364238 139.905195,132.887417 140.42684,132.887417 C141.783117,132.887417 141.783117,132.57351 140.948485,130.376159 C140.635498,129.434437 139.800866,129.015894 139.279221,129.329801 C138.653247,129.748344 137.714286,129.329801 137.192641,128.597351 C136.566667,127.550993 136.462338,127.864901 136.879654,129.539073 C137.29697,130.899338 136.983983,132.57351 136.358009,133.410596 C135.314719,134.666225 135.419048,134.980132 137.192641,134.980132 C138.653247,134.980132 139.279221,134.456954 138.861905,133.515232 Z M135.419048,131.527152 C135.314719,131.108609 135.314719,130.062252 135.314719,129.225166 C135.314719,128.388079 134.793074,127.655629 134.1671,127.655629 C133.645455,127.655629 133.436797,128.178808 133.749784,128.701987 C134.062771,129.329801 133.958442,129.748344 133.332468,129.748344 C132.706494,129.748344 132.497835,130.480795 132.915152,131.317881 C133.436797,132.887417 135.523377,133.096689 135.419048,131.527152 Z M145.747619,129.748344 C147.521212,128.701987 147.208225,128.178808 143.974026,127.237086 C142.096104,126.609272 141.887446,126.818543 142.304762,128.701987 C142.930736,131.003974 143.452381,131.213245 145.747619,129.748344 Z M166.926407,129.015894 C165.883117,128.701987 165.987446,128.178808 167.239394,126.923179 C169.012987,125.144371 168.7,118.656954 166.717749,119.075497 C166.091775,119.180132 165.57013,118.866225 165.57013,118.343046 C165.57013,116.145695 161.083983,117.819868 159.727706,120.540397 C158.058442,123.784106 158.580087,124.307285 161.083983,121.900662 C161.918615,120.95894 163.48355,120.331126 164.422511,120.540397 C166.404762,120.95894 167.239394,125.144371 165.674459,127.027815 C164.52684,128.388079 166.404762,131.422517 167.552381,130.062252 C167.865368,129.748344 167.552381,129.225166 166.926407,129.015894 Z M176.420346,129.225166 C176.733333,128.283444 176.629004,126.818543 176.107359,125.772185 C175.585714,124.830464 174.438095,122.21457 173.603463,120.121854 C172.560173,117.715232 170.264935,115.203974 167.65671,113.529801 C165.361472,112.064901 163.48355,110.286093 163.48355,109.553642 C163.48355,108.925828 163.170563,107.251656 162.857576,105.891391 C162.335931,104.007947 162.544589,103.69404 164.109524,104.217219 C165.674459,104.740397 165.778788,104.635762 164.52684,103.798675 C163.692208,103.170861 162.753247,102.856954 162.335931,103.170861 C161.918615,103.380132 161.292641,102.752318 160.979654,101.810596 C160.562338,100.868874 160.666667,99.8225166 161.292641,99.5086093 C161.814286,99.194702 162.335931,97.9390728 162.544589,96.7880795 C162.857576,95.1139073 163.900866,94.6953642 166.926407,94.5907285 C170.264935,94.4860927 170.78658,94.8 170.78658,96.8927152 C170.78658,98.7761589 171.308225,99.4039735 173.186147,99.2993377 C177.150649,99.2993377 181.636797,100.659603 182.993074,102.333775 C184.140693,103.69404 184.45368,103.484768 185.49697,100.868874 C186.122944,99.194702 186.957576,95.7417219 187.270563,93.2304636 C187.687879,89.5682119 187.479221,88.7311258 186.331602,89.1496689 C185.392641,89.4635762 184.975325,91.0331126 185.079654,93.5443709 C185.288312,97.2066225 185.183983,97.415894 182.471429,97.1019868 C180.906494,96.8927152 179.758874,96.3695364 179.758874,95.7417219 C179.863203,95.218543 180.280519,93.1258278 180.697835,91.3470199 C181.219481,88.6264901 181.010823,87.8940397 179.758874,87.8940397 C178.715584,87.8940397 178.08961,88.8357616 178.08961,90.5099338 C178.08961,91.9748344 177.672294,93.1258278 177.254978,93.1258278 C176.733333,93.1258278 176.524675,91.7655629 176.837662,90.0913907 C177.150649,87.789404 176.733333,87.0569536 175.064069,86.5337748 C173.290476,86.1152318 173.081818,86.4291391 173.499134,88.9403974 C174.229437,92.184106 172.768831,93.5443709 169.74329,92.602649 C167.239394,91.7655629 166.091775,88.3125828 167.65671,86.3245033 C168.7,85.0688742 168.282684,84.7549669 165.883117,84.2317881 C164.318182,83.813245 161.918615,83.1854305 160.666667,82.6622517 C159.206061,82.0344371 158.058442,82.0344371 157.745455,82.6622517 C156.806494,84.2317881 154.093939,83.9178808 154.719913,82.3483444 C155.0329,81.4066225 153.676623,80.3602649 151.068398,79.3139073 C147.208225,77.7443709 146.790909,77.7443709 145.121645,79.6278146 C143.974026,80.8834437 143.139394,83.9178808 142.930736,87.6847682 C142.617749,90.9284768 142.200433,94.381457 141.991775,95.218543 C140.948485,98.1483444 139.487879,93.9629139 139.487879,88.1033113 C139.487879,84.0225166 139.070563,82.6622517 138.235931,82.9761589 C137.505628,83.1854305 136.879654,84.2317881 136.879654,85.3827815 C136.775325,86.4291391 136.462338,87.9986755 136.045022,88.7311258 C134.897403,90.5099338 130.202597,90.3006623 129.472294,88.4172185 C128.950649,87.2662252 127.80303,87.0569536 124.986147,87.4754967 C119.143723,88.3125828 115.387879,88.7311258 110.0671,88.8357616 C105.685281,88.9403974 105.059307,89.2543046 104.954978,91.3470199 C104.850649,93.5443709 104.850649,93.5443709 104.120346,91.0331126 C103.70303,89.4635762 103.390043,92.2887417 103.390043,97.6251656 C103.494372,106.623841 103.494372,106.833113 105.893939,106.205298 C107.145887,105.891391 108.189177,106.100662 108.189177,106.728477 C108.189177,107.356291 108.606494,107.670199 109.128139,107.251656 C109.649784,106.937748 110.380087,107.14702 110.797403,107.774834 C111.11039,108.298013 110.901732,108.821192 110.380087,108.821192 C109.754113,108.821192 109.232468,109.344371 109.232468,109.86755 C109.232468,110.495364 109.962771,110.913907 110.797403,110.913907 C111.632035,110.913907 112.258009,110.6 112.258009,110.181457 C112.15368,109.658278 112.15368,107.774834 112.258009,105.996026 C112.362338,101.601325 114.24026,101.496689 114.657576,105.891391 C114.866234,107.670199 115.596537,109.449007 116.431169,109.658278 C117.474459,109.972185 117.683117,109.344371 117.37013,106.833113 L116.848485,103.589404 L122.58658,103.589404 C126.551082,103.589404 128.950649,104.112583 130.306926,105.368212 C132.080519,106.937748 132.184848,106.833113 132.184848,102.229139 C132.184848,99.5086093 132.706494,97.3112583 133.228139,97.3112583 C133.854113,97.3112583 134.271429,99.194702 134.271429,101.392053 C134.271429,103.69404 133.854113,105.891391 133.228139,106.205298 C131.454545,107.251656 132.080519,108.821192 134.271429,108.821192 C135.523377,108.821192 136.358009,109.553642 136.358009,110.6 C136.358009,112.169536 136.566667,112.064901 137.922944,110.286093 C138.757576,109.239735 139.38355,107.87947 139.487879,107.251656 C139.487879,106.728477 139.070563,106.937748 138.444589,107.774834 C137.922944,108.611921 137.29697,109.030464 136.983983,108.716556 C136.045022,107.774834 137.505628,103.798675 139.070563,103.170861 C140.113853,102.752318 140.531169,103.589404 140.531169,106.205298 C140.531169,108.088742 140.009524,110.076821 139.487879,110.390728 C138.861905,110.809272 138.653247,111.541722 139.070563,112.064901 C140.322511,114.262252 138.131602,119.49404 135.106061,121.377483 C131.663203,123.470199 126.864069,122.94702 122.377922,119.912583 C120.5,118.761589 119.665368,118.656954 119.352381,119.598675 C118.935065,121.063576 125.925108,124.935099 131.037229,126.086093 C133.019481,126.504636 136.462338,126.295364 139.174892,125.458278 C143.139394,124.411921 144.078355,124.411921 144.912987,125.66755 C145.747619,126.818543 145.851948,126.818543 145.434632,125.458278 C145.017316,124.307285 146.68658,122.528477 150.755411,119.598675 C155.658874,116.250331 157.641126,115.517881 162.127273,115.308609 C166.926407,115.099338 167.761039,115.413245 170.160606,118.238411 C172.87316,121.482119 174.646753,127.655629 173.394805,129.643709 C173.081818,130.271523 173.394805,130.794702 174.229437,130.794702 C175.064069,130.794702 176.107359,130.062252 176.420346,129.225166 Z M83.1502165,129.12053 C83.1502165,127.446358 80.8549784,124.516556 79.8116883,125.144371 C79.2900433,125.562914 78.2467532,125.144371 77.7251082,124.411921 C76.8904762,123.156291 76.7861472,123.260927 77.2034632,124.516556 C77.4121212,125.353642 78.4554113,125.981457 79.3943723,125.981457 C80.8549784,125.772185 81.4809524,126.818543 81.1679654,129.015894 C81.1679654,129.434437 81.5852814,129.748344 82.1069264,129.748344 C82.7329004,129.748344 83.1502165,129.434437 83.1502165,129.12053 Z M62.9103896,123.156291 C59.7805195,120.017219 59.5718615,120.22649 61.8670996,124.725828 C62.9103896,126.818543 63.8493506,127.550993 64.5796537,126.818543 C65.2056277,126.190728 64.6839827,124.935099 62.9103896,123.156291 Z M153.050649,123.888742 C155.345887,120.331126 155.345887,118.343046 153.154978,119.807947 C152.529004,120.121854 152.216017,120.95894 152.529004,121.482119 C153.467965,122.94702 150.129437,125.876821 148.355844,125.144371 C147.521212,124.830464 146.790909,125.039735 146.790909,125.458278 C146.790909,126.4 148.460173,127.341722 150.129437,127.550993 C150.442424,127.655629 151.798701,125.981457 153.050649,123.888742 Z M157.641126,124.935099 C156.389177,123.051656 155.658874,122.633113 155.0329,123.574834 C153.885281,125.458278 155.137229,127.655629 157.328139,127.655629 C159.31039,127.655629 159.31039,127.550993 157.641126,124.935099 Z M163.48355,126.086093 C163.48355,125.249007 163.066234,124.516556 162.44026,124.516556 C161.918615,124.516556 161.39697,125.249007 161.39697,126.086093 C161.39697,126.923179 161.918615,127.655629 162.44026,127.655629 C163.066234,127.655629 163.48355,126.923179 163.48355,126.086093 Z M182.262771,122.319205 C182.784416,121.482119 182.784416,120.121854 182.158442,119.180132 C181.428139,118.029139 181.219481,118.238411 181.219481,119.912583 C181.219481,121.168212 180.489177,122.423841 179.654545,122.842384 C178.402597,123.260927 178.193939,122.842384 178.715584,120.540397 C179.550216,117.192053 179.758874,116.878146 181.741126,116.564238 C182.575758,116.459603 183.306061,117.087417 183.306061,118.029139 C183.306061,119.180132 184.140693,118.447682 185.392641,116.354967 C187.896537,112.378808 188.209524,109.344371 185.809957,112.797351 C184.975325,114.05298 183.097403,115.099338 181.741126,115.099338 C179.550216,115.099338 178.924242,114.366887 177.985281,110.495364 C176.524675,104.531126 172.560173,100.868874 166.926407,100.136424 C164.422511,99.8225166 162.44026,99.9271523 162.44026,100.345695 C162.44026,101.496689 167.343723,103.589404 169.74329,103.589404 C173.186147,103.589404 176.420346,109.553642 176.733333,116.564238 C176.941991,120.121854 177.359307,124.098013 177.672294,125.562914 C178.298268,128.178808 178.298268,128.178808 179.863203,126.086093 C180.697835,124.935099 181.741126,123.260927 182.262771,122.319205 Z M94.6264069,123.888742 C94.6264069,123.051656 94.2090909,122.633113 93.5831169,122.94702 C93.0614719,123.260927 92.5398268,124.307285 92.5398268,125.144371 C92.5398268,125.981457 93.0614719,126.4 93.5831169,126.086093 C94.2090909,125.772185 94.6264069,124.725828 94.6264069,123.888742 Z M171.82987,125.562914 C171.82987,125.039735 171.412554,124.516556 170.78658,124.516556 C170.264935,124.516556 169.74329,125.039735 169.74329,125.562914 C169.74329,126.190728 170.264935,126.609272 170.78658,126.609272 C171.412554,126.609272 171.82987,126.190728 171.82987,125.562914 Z M69.5874459,123.993377 C69.5874459,123.156291 70.0047619,122.423841 70.6307359,122.423841 C71.152381,122.423841 71.361039,123.156291 71.0480519,123.993377 C70.1090909,126.295364 73.134632,125.981457 75.3255411,123.470199 C77.2034632,121.377483 77.2034632,121.377483 74.8038961,121.586755 C71.465368,122.005298 68.4398268,117.192053 70.5264069,114.680795 C71.25671,113.739073 72.821645,113.006623 73.9692641,113.006623 C75.7428571,113.006623 75.8471861,112.692715 74.8038961,111.437086 C74.0735931,110.6 71.778355,109.86755 69.6917749,109.86755 C66.7705628,109.86755 66.2489177,110.181457 67.5008658,111.018543 C68.7528139,111.960265 68.6484848,112.064901 66.6662338,111.646358 C64.8926407,111.227815 63.9536797,111.750993 62.7017316,114.157616 C60.9281385,117.819868 61.5541126,120.95894 64.3709957,121.900662 C65.4142857,122.21457 66.5619048,123.156291 66.8748918,123.993377 C67.6051948,126.086093 69.5874459,125.981457 69.5874459,123.993377 Z M99.9471861,118.656954 C102.033766,118.238411 104.329004,116.982781 105.372294,115.517881 L107.354545,112.901987 L104.329004,113.634437 C98.7995671,114.994702 96.817316,116.04106 92.6441558,119.912583 C87.2190476,124.725828 87.0103896,126.713907 92.3311688,122.423841 C94.5220779,120.645033 97.9649351,118.970861 99.9471861,118.656954 Z M82.2112554,122.109934 C81.1679654,121.168212 81.0636364,121.272848 81.6896104,122.737748 C82.0025974,123.784106 82.6285714,124.307285 82.9415584,123.993377 C83.2545455,123.67947 82.9415584,122.842384 82.2112554,122.109934 Z M99.4255411,122.423841 C99.4255411,121.272848 99.0082251,120.331126 98.5909091,120.331126 C97.44329,120.331126 96.504329,122.319205 97.234632,123.470199 C98.2779221,125.144371 99.4255411,124.621192 99.4255411,122.423841 Z M106.311255,122.737748 C105.580952,121.482119 105.78961,120.22649 106.8329,118.552318 C108.293506,116.459603 111.214719,114.890066 109.858442,116.982781 C108.815152,118.656954 111.006061,120.540397 113.301299,119.807947 C115.179221,119.284768 115.28355,118.970861 114.031602,117.610596 C113.19697,116.77351 111.945022,116.145695 111.319048,116.145695 C110.693074,116.145695 110.484416,115.622517 110.797403,115.099338 C111.214719,114.471523 111.945022,114.262252 112.466667,114.576159 C112.988312,114.994702 113.405628,114.680795 113.405628,113.948344 C113.405628,113.111258 113.822944,113.111258 114.970563,114.05298 C116.222511,115.099338 116.535498,115.099338 116.535498,113.948344 C116.535498,112.797351 116.744156,112.797351 117.891775,113.948344 C118.935065,115.099338 118.935065,115.413245 117.891775,115.831788 C117.161472,116.145695 116.535498,116.77351 116.535498,117.401325 C116.535498,118.029139 117.161472,118.029139 118.100433,117.192053 C118.935065,116.459603 119.665368,114.994702 119.665368,113.948344 C119.665368,112.274172 119.143723,112.064901 115.805195,112.588079 C113.614286,112.901987 111.319048,113.215894 110.588745,113.215894 C109.858442,113.32053 109.545455,113.739073 109.858442,114.157616 C110.0671,114.576159 109.336797,115.203974 108.189177,115.622517 C107.041558,115.936424 106.102597,116.982781 106.102597,117.819868 C106.102597,118.656954 105.476623,119.284768 104.641991,119.284768 C103.807359,119.284768 102.764069,119.807947 102.346753,120.540397 C101.929437,121.168212 102.033766,121.377483 102.65974,121.063576 C103.285714,120.645033 104.016017,121.272848 104.329004,122.423841 C104.641991,123.574834 105.372294,124.516556 106.102597,124.516556 C106.8329,124.516556 106.937229,123.993377 106.311255,122.737748 Z M149.920779,123.470199 C149.920779,122.94702 149.399134,122.423841 148.77316,122.423841 C148.251515,122.423841 148.042857,122.94702 148.355844,123.470199 C148.668831,124.098013 149.190476,124.516556 149.503463,124.516556 C149.712121,124.516556 149.920779,124.098013 149.920779,123.470199 Z M79.3943723,119.807947 C79.7073593,118.970861 79.4987013,118.238411 78.9770563,118.238411 C78.3510823,118.238411 77.9337662,118.970861 77.9337662,119.807947 C77.9337662,120.645033 78.1424242,121.377483 78.3510823,121.377483 C78.5597403,121.377483 78.9770563,120.645033 79.3943723,119.807947 Z M132.915152,120.749669 C132.602165,120.435762 131.663203,120.331126 130.9329,120.645033 C130.098268,120.95894 130.411255,121.272848 131.558874,121.272848 C132.706494,121.377483 133.332468,121.063576 132.915152,120.749669 Z M175.585714,116.668874 C175.168398,115.099338 174.125108,114.05298 173.081818,114.05298 C171.412554,114.157616 171.412554,114.157616 173.186147,115.517881 C174.125108,116.250331 174.95974,118.029139 175.064069,119.389404 C175.064069,120.749669 175.377056,121.272848 175.690043,120.540397 C176.00303,119.807947 175.898701,118.029139 175.585714,116.668874 Z M131.245887,116.668874 C132.289177,116.250331 133.228139,115.308609 133.228139,114.471523 C133.228139,113.32053 132.289177,113.529801 129.367965,115.517881 C127.281385,116.982781 125.194805,117.924503 124.67316,117.610596 C124.255844,117.296689 123.838528,117.610596 123.838528,118.343046 C123.838528,118.970861 124.67316,119.284768 125.925108,118.970861 C127.072727,118.656954 128.116017,118.970861 128.116017,119.598675 C128.220346,120.331126 128.429004,120.017219 128.741991,119.075497 C128.950649,118.133775 130.098268,116.982781 131.245887,116.668874 Z M157.745455,119.284768 C158.058442,118.761589 157.849784,118.238411 157.328139,118.238411 C156.702165,118.238411 156.180519,118.761589 156.180519,119.284768 C156.180519,119.912583 156.389177,120.331126 156.597835,120.331126 C156.910823,120.331126 157.432468,119.912583 157.745455,119.284768 Z M76.8904762,117.610596 C76.8904762,115.831788 74.5952381,116.145695 73.9692641,118.029139 C73.7606061,118.761589 74.2822511,119.284768 75.2212121,119.284768 C76.1601732,119.284768 76.8904762,118.552318 76.8904762,117.610596 Z M123.734199,116.250331 C124.67316,115.622517 124.777489,115.099338 123.942857,114.680795 C122.273593,113.634437 124.464502,109.86755 126.75974,109.86755 C127.80303,109.86755 129.159307,110.390728 129.88961,111.123179 C131.767532,113.006623 131.454545,110.704636 129.472294,107.87947 C128.116017,105.996026 127.594372,105.786755 126.864069,106.833113 C126.133766,107.984106 125.925108,107.984106 125.925108,106.623841 C125.925108,105.472848 124.881818,104.949669 122.273593,104.949669 C119.248052,104.949669 118.622078,105.368212 118.622078,107.14702 C118.726407,109.135099 118.830736,109.135099 119.769697,107.565563 C120.917316,105.472848 123.838528,104.949669 123.838528,106.833113 C123.838528,107.356291 123.421212,107.670199 122.899567,107.251656 C122.273593,106.937748 121.334632,107.670199 120.708658,108.821192 C119.874026,110.390728 119.874026,110.913907 120.812987,110.913907 C121.438961,110.913907 121.751948,111.646358 121.438961,112.483444 C121.021645,113.32053 121.334632,114.262252 121.960606,114.680795 C122.690909,115.099338 122.58658,115.622517 121.647619,116.250331 C120.812987,116.77351 120.708658,117.192053 121.230303,117.192053 C121.856277,117.192053 122.899567,116.77351 123.734199,116.250331 Z M92.9571429,113.006623 C93.6874459,109.135099 95.669697,108.821192 95.669697,112.588079 C95.669697,114.05298 96.087013,114.994702 96.712987,114.576159 C97.234632,114.262252 97.338961,113.215894 97.025974,112.378808 C96.712987,111.437086 97.338961,110.181457 98.6952381,109.239735 C100.781818,107.670199 101.929437,103.903311 99.8428571,105.15894 C99.2168831,105.577483 99.1125541,106.309934 99.4255411,106.937748 C99.9471861,107.670199 99.6341991,107.774834 98.9038961,107.356291 C97.9649351,106.728477 97.9649351,106.100662 99.1125541,104.845033 C99.9471861,103.798675 100.886147,99.9271523 101.199134,96.0556291 C101.929437,87.789404 101.407792,87.4754967 93.8961039,91.1377483 C89.8272727,93.1258278 88.6796537,93.2304636 82.7329004,92.184106 C79.1857143,91.5562914 75.8471861,91.0331126 75.4298701,91.0331126 C75.0125541,91.0331126 74.8038961,94.4860927 75.0125541,98.6715232 L75.3255411,106.205298 L78.4554113,105.996026 C81.5852814,105.786755 83.1502165,107.042384 83.1502165,109.86755 C83.0458874,111.018543 82.7329004,110.913907 81.5852814,109.449007 C80.7506494,108.298013 79.8116883,107.670199 79.4987013,107.984106 C79.1857143,108.298013 79.9160173,109.658278 81.0636364,111.123179 C82.1069264,112.588079 82.8372294,114.05298 82.5242424,114.366887 C82.2112554,114.680795 83.0458874,114.680795 84.4021645,114.262252 C86.2800866,113.739073 86.3844156,113.529801 85.0281385,113.215894 C83.9848485,113.006623 83.1502165,112.378808 83.1502165,111.750993 C83.1502165,111.123179 83.4632035,110.913907 83.8805195,111.227815 C85.1324675,112.588079 87.3233766,109.553642 87.3233766,106.519205 C87.3233766,104.531126 87.7406926,103.589404 88.6796537,103.903311 C89.5142857,104.112583 89.8272727,106.100662 89.6186147,110.181457 C89.3056277,114.890066 89.5142857,116.145695 90.7662338,116.145695 C91.6008658,116.145695 92.5398268,114.78543 92.9571429,113.006623 Z M128.011688,113.529801 C128.011688,112.692715 127.594372,111.960265 126.968398,111.960265 C126.446753,111.960265 125.925108,112.692715 125.925108,113.529801 C125.925108,114.366887 126.446753,115.099338 126.968398,115.099338 C127.594372,115.099338 128.011688,114.366887 128.011688,113.529801 Z M138.444589,114.05298 C138.444589,113.529801 138.027273,113.006623 137.401299,113.006623 C136.879654,113.006623 136.358009,113.529801 136.358009,114.05298 C136.358009,114.680795 136.879654,115.099338 137.401299,115.099338 C138.027273,115.099338 138.444589,114.680795 138.444589,114.05298 Z M99.8428571,111.33245 C99.8428571,110.495364 99.4255411,110.076821 98.7995671,110.390728 C98.2779221,110.704636 97.7562771,111.437086 97.7562771,112.064901 C97.7562771,112.588079 98.2779221,113.006623 98.7995671,113.006623 C99.4255411,113.006623 99.8428571,112.274172 99.8428571,111.33245 Z M174.95974,111.855629 C174.95974,111.123179 174.020779,110.913907 172.455844,111.33245 C170.264935,111.855629 170.056277,111.646358 170.577922,109.135099 C170.995238,106.623841 170.890909,106.519205 168.387013,107.14702 C166.926407,107.460927 165.465801,107.251656 165.257143,106.728477 C164.944156,106.100662 164.839827,106.205298 164.944156,106.937748 C165.152814,107.670199 166.300433,108.193377 167.552381,108.088742 C168.908658,107.87947 169.638961,108.193377 169.221645,108.821192 C168.908658,109.449007 167.865368,109.86755 167.030736,109.86755 C166.196104,109.86755 165.778788,110.390728 166.091775,110.913907 C166.509091,111.541722 167.135065,111.750993 167.65671,111.437086 C168.178355,111.123179 168.804329,111.33245 169.221645,111.960265 C170.056277,113.425166 174.95974,113.32053 174.95974,111.855629 Z M63.3277056,110.390728 C64.3709957,109.030464 64.2666667,108.821192 62.4930736,108.821192 C60.9281385,108.821192 60.4064935,109.344371 60.8238095,110.390728 C61.2411255,111.227815 61.5541126,111.960265 61.7627706,111.960265 C61.8670996,111.960265 62.5974026,111.227815 63.3277056,110.390728 Z M181.949784,110.390728 C181.949784,109.553642 181.532468,109.135099 181.010823,109.449007 C180.593506,109.762914 180.17619,110.390728 180.17619,111.018543 C180.17619,111.541722 180.593506,111.960265 181.010823,111.960265 C181.532468,111.960265 181.949784,111.227815 181.949784,110.390728 Z M107.145887,108.821192 C107.145887,107.460927 106.624242,107.042384 105.685281,107.356291 C103.181385,108.298013 102.764069,110.913907 105.059307,110.913907 C106.415584,110.913907 107.145887,110.181457 107.145887,108.821192 Z M187.479221,107.984106 C188.209524,108.193377 188.939827,107.14702 189.148485,105.786755 C189.461472,103.903311 189.252814,103.589404 188.209524,104.42649 C186.644589,105.786755 184.036364,105.577483 181.949784,103.798675 C180.697835,102.752318 180.17619,102.752318 179.550216,103.69404 C179.1329,104.42649 179.237229,104.635762 179.863203,104.321854 C180.384848,104.007947 181.636797,105.15894 182.680087,106.937748 C183.932035,108.925828 184.870996,109.658278 185.392641,108.925828 C185.809957,108.193377 186.748918,107.774834 187.479221,107.984106 Z M53.8337662,101.810596 C52.7904762,100.659603 52.3731602,100.659603 51.7471861,101.70596 C50.7038961,103.484768 51.5385281,104.635762 53.5207792,103.903311 C54.6683983,103.484768 54.7727273,103.066225 53.8337662,101.810596 Z M73.7606061,99.194702 C73.34329,94.1721854 73.238961,94.0675497 72.925974,97.6251656 C72.717316,100.450331 72.091342,101.496689 70.8393939,101.392053 C69.6917749,101.392053 69.5874459,101.078146 70.4220779,100.764238 C71.152381,100.450331 71.674026,98.1483444 71.778355,94.9046358 C71.778355,90.9284768 72.091342,89.986755 72.717316,91.5562914 C73.5519481,93.5443709 73.6562771,93.5443709 73.6562771,91.2423841 C73.7606061,88.7311258 73.238961,88.4172185 67.8138528,87.4754967 C64.6839827,86.9523179 64.3709957,87.1615894 64.3709957,89.4635762 C64.3709957,93.3350993 62.2844156,92.602649 62.1800866,88.7311258 C62.1800866,85.3827815 62.0757576,85.3827815 61.1367965,87.8940397 C60.5108225,89.3589404 60.3021645,91.3470199 60.6151515,92.2887417 C60.8238095,93.4397351 60.5108225,94.1721854 59.5718615,94.1721854 C58.2155844,94.1721854 57.5896104,91.1377483 58.0069264,86.6384106 C58.1112554,85.592053 57.7982684,84.7549669 57.2766234,84.7549669 C55.6073593,84.7549669 55.1900433,89.6728477 56.6506494,93.7536424 C58.2155844,98.4622517 58.0069264,98.8807947 54.4597403,97.9390728 C51.7471861,97.2066225 51.6428571,96.997351 52.0601732,90.5099338 C52.3731602,84.4410596 52.1645022,83.7086093 50.3909091,83.7086093 C48.617316,83.7086093 48.512987,84.2317881 49.138961,88.5218543 C49.4519481,91.2423841 49.7649351,95.0092715 49.7649351,96.997351 C49.7649351,99.9271523 50.0779221,100.554967 51.4341991,100.031788 C52.2688312,99.7178808 54.1467532,100.24106 55.6073593,101.182781 C57.6939394,102.543046 58.4242424,102.647682 59.4675325,101.496689 C60.5108225,100.450331 60.3021645,100.24106 58.9458874,100.764238 C56.9636364,101.496689 56.3376623,99.9271523 58.2155844,98.8807947 C58.7372294,98.4622517 60.0935065,98.8807947 61.1367965,99.8225166 C63.6406926,102.124503 65.2056277,101.915232 65.6229437,99.194702 C66.1445887,95.6370861 68.5441558,95.5324503 68.5441558,99.194702 C68.5441558,101.810596 70.7350649,104.112583 73.7606061,104.531126 C74.0735931,104.635762 74.0735931,102.124503 73.7606061,99.194702 Z M191.75671,97.2066225 C193.947619,92.8119205 194.364935,89.986755 192.695671,89.986755 C192.174026,89.986755 191.652381,90.7192053 191.652381,91.5562914 C191.652381,92.3933775 190.504762,95.5324503 189.148485,98.4622517 C186.122944,104.635762 188.522511,103.484768 191.75671,97.2066225 Z M144.182684,78.4768212 C145.956277,76.5933775 145.956277,76.384106 144.287013,76.384106 C143.348052,76.384106 142.722078,76.802649 143.035065,77.3258278 C143.348052,77.7443709 142.826407,78.8953642 141.783117,79.8370861 C140.322511,81.197351 140.113853,82.7668874 140.42684,88.1033113 L140.948485,94.6953642 L141.574459,87.6847682 C141.991775,83.0807947 142.930736,79.8370861 144.182684,78.4768212 Z M38.8103896,90.9284768 C39.4363636,90.6145695 41.1056277,89.986755 42.7748918,89.5682119 C44.3398268,89.2543046 45.5917749,88.5218543 45.5917749,87.9986755 C45.5917749,86.9523179 40.3753247,84.3364238 36.2021645,83.2900662 C33.6982684,82.5576159 33.6982684,82.6622517 35.5761905,84.1271523 C36.7238095,85.0688742 38.3930736,85.8013245 39.4363636,85.8013245 C40.3753247,85.8013245 41.6272727,86.4291391 42.2532468,87.1615894 C43.0878788,88.207947 42.8792208,88.5218543 41.3142857,88.5218543 C40.2709957,88.5218543 39.3320346,88.207947 39.3320346,87.789404 C39.3320346,86.6384106 27.4385281,83.7086093 22.952381,83.7086093 C17.3186147,83.7086093 14.6060606,84.6503311 16.5883117,86.010596 C17.5272727,86.6384106 17.0056277,86.8476821 14.9190476,86.6384106 C13.2497835,86.4291391 11.6848485,85.8013245 11.4761905,85.0688742 C10.0155844,80.7788079 42.3575758,79.6278146 59.1545455,83.4993377 C64.5796537,84.7549669 69.1701299,85.8013245 69.2744589,85.8013245 C69.4831169,85.8013245 68.8571429,84.5456954 67.8138528,83.0807947 C66.0402597,80.3602649 66.1445887,80.2556291 68.5441558,78.2675497 C70.5264069,76.6980132 72.091342,76.2794702 75.2212121,76.6980132 C77.4121212,77.0119205 79.8116883,77.8490066 80.4376623,78.4768212 C81.2722944,79.418543 80.1246753,79.5231788 75.7428571,79 C69.1701299,78.1629139 67.5008658,79.3139073 69.4831169,82.9761589 C71.569697,86.6384106 75.4298701,88.9403974 81.6896104,90.0913907 C87.1147186,91.1377483 95.565368,90.6145695 94.3134199,89.3589404 C94.1047619,89.0450331 91.0792208,88.7311258 87.6363636,88.5218543 C78.9770563,87.9986755 73.7606061,84.9642384 73.7606061,80.4649007 C73.7606061,79.9417219 74.2822511,79.5231788 74.9082251,79.5231788 C75.4298701,79.5231788 75.7428571,79.9417219 75.4298701,80.4649007 C75.1168831,80.8834437 75.9515152,82.3483444 77.2034632,83.6039735 C79.2900433,85.4874172 81.2722944,85.9059603 92.1225108,86.4291391 C99.1125541,86.8476821 110.171429,86.5337748 117.474459,85.9059603 C128.220346,84.9642384 131.350216,84.2317881 135.627706,81.8251656 C138.548918,80.2556291 141.052814,78.4768212 141.261472,77.7443709 C141.47013,77.1165563 140.009524,76.0701987 137.922944,75.3377483 C135.001732,74.3960265 132.810823,74.3960265 126.968398,75.7562914 C123.003896,76.6980132 117.37013,77.4304636 114.448918,77.4304636 C110.797403,77.4304636 109.336797,77.8490066 109.858442,78.581457 C110.797403,80.1509934 125.71645,78.6860927 131.663203,76.384106 C133.645455,75.6516556 135.106061,75.7562914 137.088312,76.802649 C140.42684,78.4768212 139.38355,79.2092715 130.828571,81.197351 C125.507792,82.4529801 122.690909,82.5576159 114.761905,81.5112583 C109.441126,80.8834437 105.059307,79.8370861 105.059307,79.3139073 C105.059307,78.7907285 105.476623,78.581457 105.998268,79 C106.519913,79.3139073 107.250216,79.2092715 107.563203,78.6860927 C107.771861,78.2675497 102.972727,77.8490066 96.921645,77.7443709 C89.6186147,77.7443709 84.1935065,77.1165563 81.3766234,76.0701987 C78.2467532,74.9192053 74.3865801,74.5006623 68.8571429,74.8145695 C61.8670996,75.1284768 60.4064935,74.9192053 58.5285714,73.1403974 C56.6506494,71.3615894 55.9203463,71.1523179 54.1467532,72.3033113 C52.3731602,73.3496689 51.6428571,73.2450331 49.24329,71.3615894 C46.6350649,69.2688742 42.0445887,68.013245 43.8181818,69.792053 C44.7571429,70.7337748 38.3930736,73.4543046 37.1411255,72.6172185 C36.6194805,72.3033113 36.2021645,71.5708609 36.2021645,70.9430464 C36.2021645,69.5827815 33.0722944,65.9205298 31.9246753,65.9205298 C31.5073593,65.9205298 31.2987013,67.8039735 31.5073593,70.1059603 C32.1333333,75.6516556 29.6294372,74.7099338 26.1865801,67.9086093 C23.265368,61.9443709 20.5528139,61.2119205 18.8835498,65.815894 C18.0489177,68.013245 16.7969697,68.9549669 14.1887446,69.4781457 C3.12987013,71.5708609 -0.521645022,81.0927152 7.61601732,86.5337748 C13.9800866,90.7192053 34.8458874,93.6490066 38.8103896,90.9284768 Z M229.210823,87.6847682 C231.714719,86.3245033 234.635931,84.0225166 235.78355,82.5576159 C237.661472,79.9417219 237.661472,79.6278146 235.992208,76.0701987 C234.948918,73.7682119 232.445022,71.2569536 229.836797,69.6874172 C225.976623,67.4900662 224.516017,67.1761589 215.648052,67.3854305 C204.693506,67.594702 200.833333,68.9549669 198.955411,73.1403974 L197.703463,75.8609272 L200.833333,72.8264901 C204.171861,69.6874172 213.561472,67.594702 213.561472,70.0013245 C213.561472,70.6291391 211.996537,71.1523179 210.222944,71.2569536 C208.345022,71.2569536 205.841126,71.6754967 204.693506,72.1986755 C202.815584,73.0357616 202.919913,73.1403974 205.528139,73.1403974 C207.093074,73.2450331 210.222944,74.186755 212.518182,75.3377483 C214.81342,76.4887417 218.047619,77.4304636 219.821212,77.4304636 C222.220779,77.4304636 222.951082,77.0119205 222.951082,75.3377483 C222.951082,72.8264901 223.055411,72.8264901 227.645887,74.7099338 C231.819048,76.4887417 232.758009,79.8370861 229.002165,79.3139073 C227.541558,79.1046358 226.602597,78.2675497 226.706926,77.3258278 C226.811255,76.384106 226.185281,75.6516556 225.454978,75.6516556 C224.516017,75.6516556 223.994372,76.9072848 223.994372,78.7907285 C223.994372,80.5695364 223.264069,82.8715232 222.220779,83.9178808 C219.508225,86.9523179 216.169697,86.2198675 212.413853,81.7205298 L208.970996,77.6397351 L206.988745,80.1509934 C204.067532,83.9178808 199.268398,83.4993377 193.425974,78.8953642 C190.400433,76.5933775 187.896537,75.3377483 186.957576,75.7562914 C186.018615,76.0701987 183.514719,75.4423841 181.32381,74.2913907 C178.506926,72.9311258 176.211688,72.5125828 173.707792,72.9311258 C171.412554,73.2450331 169.74329,73.0357616 169.325974,72.3033113 C168.804329,71.4662252 167.552381,71.989404 165.361472,73.7682119 C162.127273,76.5933775 155.867532,77.3258278 154.511255,75.1284768 C153.98961,74.2913907 154.719913,74.186755 157.015152,74.605298 C160.666667,75.3377483 165.152814,73.7682119 165.987446,71.5708609 C166.822078,69.2688742 164.944156,65.397351 162.022944,63.5139073 C159.101732,61.5258278 151.485714,61.1072848 150.442424,62.781457 C150.025108,63.4092715 151.485714,63.8278146 153.885281,63.8278146 C156.389177,63.8278146 158.997403,64.6649007 160.458009,65.815894 C162.544589,67.4900662 162.753247,68.2225166 161.918615,70.7337748 C161.292641,72.3033113 160.145022,73.7682119 159.31039,74.0821192 C158.058442,74.5006623 157.954113,74.2913907 159.101732,73.1403974 C161.605628,70.4198675 160.562338,68.1178808 156.493506,67.4900662 C154.302597,67.0715232 150.025108,65.815894 146.999567,64.6649007 C137.505628,60.8980132 122.58658,62.4675497 110.171429,68.5364238 C107.250216,69.8966887 104.329004,70.8384106 103.70303,70.4198675 C103.077056,70.1059603 102.972727,70.3152318 103.390043,70.9430464 C103.807359,71.6754967 103.077056,72.7218543 101.407792,73.4543046 C99.8428571,74.186755 99.2168831,74.9192053 99.8428571,75.3377483 C102.033766,76.6980132 112.988312,76.4887417 116.639827,74.9192053 C119.665368,73.6635762 132.497835,71.4662252 134.271429,71.8847682 C134.584416,71.989404 136.25368,72.3033113 137.922944,72.6172185 C140.948485,73.2450331 140.948485,73.1403974 137.401299,71.5708609 C133.332468,69.6874172 125.507792,70.1059603 116.535498,72.8264901 C113.614286,73.6635762 109.441126,74.2913907 107.354545,74.0821192 L103.494372,73.7682119 L108.919481,70.9430464 C114.553247,67.9086093 119.352381,67.0715232 117.996104,69.2688742 C117.578788,70.0013245 117.683117,70.1059603 118.517749,69.6874172 C119.143723,69.2688742 119.45671,68.5364238 119.248052,68.2225166 C119.039394,67.8039735 119.978355,66.9668874 121.334632,66.2344371 C122.690909,65.6066225 123.838528,65.397351 123.838528,65.9205298 C123.838528,66.3390728 126.133766,66.7576159 128.950649,66.6529801 C133.645455,66.6529801 140.739827,69.5827815 141.783117,71.989404 C142.200433,72.9311258 148.668831,75.6516556 161.39697,80.0463576 C169.638961,82.8715232 178.924242,85.0688742 188.522511,86.3245033 C189.357143,86.4291391 190.817749,86.8476821 191.652381,87.1615894 C196.555844,88.9403974 202.815584,89.7774834 213.039827,89.8821192 C223.055411,89.986755 225.141991,89.6728477 229.210823,87.6847682 Z M45.0701299,83.7086093 C45.3831169,83.1854305 45.1744589,82.6622517 44.6528139,82.6622517 C44.0268398,82.6622517 43.5051948,83.1854305 43.5051948,83.7086093 C43.5051948,84.3364238 43.7138528,84.7549669 43.9225108,84.7549669 C44.2354978,84.7549669 44.7571429,84.3364238 45.0701299,83.7086093 Z M220.134199,83.0807947 C221.07316,82.1390728 218.98658,78.4768212 217.525974,78.4768212 C216.587013,78.4768212 216.587013,78.7907285 217.525974,79.7324503 C219.299567,81.5112583 219.090909,83.1854305 217.212987,81.615894 C216.378355,80.8834437 215.648052,79.6278146 215.648052,78.8953642 C215.648052,78.0582781 215.230736,77.4304636 214.604762,77.4304636 C213.144156,77.4304636 213.248485,78.2675497 215.439394,81.0927152 C217.212987,83.6039735 218.882251,84.3364238 220.134199,83.0807947 Z M207.093074,75.4423841 C206.362771,75.2331126 205.632468,75.5470199 205.42381,76.2794702 C205.110823,77.2211921 204.693506,77.2211921 203.545887,76.2794702 C202.398268,75.3377483 202.085281,75.3377483 202.085281,76.2794702 C202.085281,77.0119205 201.667965,77.2211921 201.041991,76.9072848 C199.05974,75.6516556 197.703463,77.5350993 199.581385,79 C201.14632,80.1509934 201.980952,79.9417219 204.902165,78.0582781 C206.780087,76.9072848 207.719048,75.6516556 207.093074,75.4423841 Z M196.555844,75.8609272 C196.555844,75.0238411 196.138528,74.2913907 195.616883,74.2913907 C195.199567,74.2913907 194.782251,73.5589404 194.782251,72.6172185 C194.782251,71.7801325 195.303896,71.3615894 195.825541,71.6754967 C196.451515,71.989404 196.868831,71.5708609 196.868831,70.7337748 C196.868831,69.8966887 197.807792,68.8503311 198.955411,68.5364238 C201.459307,67.6993377 201.772294,65.9205298 199.372727,65.9205298 C198.538095,65.9205298 198.120779,66.4437086 198.433766,66.9668874 C198.746753,67.594702 198.642424,68.013245 198.120779,68.013245 C197.494805,68.013245 196.764502,67.2807947 196.451515,66.3390728 C195.721212,64.4556291 194.260606,65.1880795 192.695671,68.013245 C191.861039,69.6874172 191.861039,69.8966887 193.112987,69.4781457 C194.469264,68.9549669 194.573593,69.4781457 193.738961,72.407947 C193.112987,74.2913907 192.695671,75.9655629 192.695671,76.0701987 C192.695671,76.1748344 193.530303,76.4887417 194.573593,76.6980132 C195.512554,77.0119205 196.347186,77.2211921 196.451515,77.3258278 C196.451515,77.3258278 196.555844,76.6980132 196.555844,75.8609272 Z M92.5398268,73.9774834 C92.5398268,72.7218543 94.1047619,68.3271523 96.087013,64.1417219 C99.7385281,56.5033113 102.972727,53.2596026 110.797403,49.7019868 C119.665368,45.5165563 137.29697,46.981457 136.566667,51.794702 C136.358009,52.9456954 135.732035,54.410596 135.106061,54.9337748 C134.375758,55.6662252 134.1671,55.2476821 134.584416,53.6781457 C134.897403,52.3178808 134.688745,51.2715232 134.271429,51.2715232 C133.749784,51.2715232 133.228139,52.1086093 132.915152,53.1549669 C132.602165,54.6198675 132.289177,54.5152318 131.350216,52.3178808 C130.202597,49.7019868 130.202597,49.7019868 130.202597,52.1086093 C130.098268,53.4688742 130.828571,54.7245033 131.97619,55.1430464 C132.915152,55.4569536 135.21039,56.8172185 136.879654,58.0728477 C138.653247,59.3284768 140.844156,60.584106 141.887446,61.002649 C143.452381,61.6304636 143.55671,61.4211921 142.617749,59.6423841 C141.991775,58.4913907 141.052814,57.5496689 140.42684,57.5496689 C139.800866,57.5496689 139.696537,57.0264901 140.113853,56.3986755 C140.531169,55.5615894 140.009524,55.4569536 138.34026,55.9801325 C135.940693,56.7125828 135.940693,56.607947 137.609957,54.8291391 C139.279221,53.1549669 139.696537,53.1549669 142.304762,54.5152318 C143.765368,55.3523179 145.851948,57.2357616 146.68658,58.805298 C148.251515,61.5258278 150.964069,62.781457 150.964069,60.8980132 C150.964069,60.4794702 149.607792,57.8635762 147.938528,55.2476821 C144.182684,49.2834437 138.757576,45.0980132 133.854113,44.2609272 C131.663203,43.9470199 130.411255,43.2145695 130.828571,42.586755 C131.141558,42.0635762 131.037229,41.7496689 130.515584,42.1682119 C129.993939,42.4821192 126.864069,43.005298 123.62987,43.3192053 C109.649784,44.8887417 101.094805,49.8066225 95.0437229,59.8516556 C92.6441558,63.8278146 90.9748918,67.8039735 90.8705628,70.210596 C90.7662338,72.3033113 90.3489177,74.605298 90.0359307,75.2331126 C89.6186147,75.8609272 90.0359307,76.384106 90.8705628,76.384106 C91.9138528,76.384106 92.5398268,75.4423841 92.5398268,73.9774834 Z M85.6541126,73.5589404 C85.9670996,73.1403974 85.2367965,72.1986755 83.9848485,71.4662252 C82.4199134,70.6291391 82.1069264,70.210596 83.1502165,70.1059603 C84.5064935,70.1059603 84.5064935,70.0013245 83.1502165,69.0596026 C82.0025974,68.2225166 82.2112554,68.1178808 84.2978355,68.5364238 C86.4887446,69.0596026 87.1147186,68.7456954 87.6363636,67.0715232 C88.0536797,65.397351 87.4277056,64.4556291 85.4454545,63.3046358 C82.2112554,61.5258278 82.8372294,61.3165563 86.6974026,62.781457 C89.8272727,63.9324503 90.1402597,63.2 87.6363636,60.3748344 C85.8627706,58.386755 85.8627706,58.2821192 88.0536797,59.4331126 C90.8705628,61.002649 91.9138528,58.9099338 89.6186147,56.2940397 C88.6796537,55.1430464 88.5753247,54.410596 89.2012987,54.410596 C89.8272727,54.410596 90.6619048,54.9337748 90.9748918,55.4569536 C91.2878788,56.0847682 92.1225108,56.5033113 92.7484848,56.5033113 C93.3744589,56.5033113 93.2701299,55.7708609 92.4354978,54.7245033 C91.3922078,53.4688742 91.2878788,53.1549669 92.3311688,53.7827815 C93.0614719,54.2013245 94.3134199,53.992053 95.1480519,53.3642384 C96.4,52.3178808 96.4,51.794702 94.9393939,49.597351 C94.1047619,48.2370861 93.7917749,47.0860927 94.4177489,47.0860927 C94.9393939,47.0860927 95.669697,47.818543 96.087013,48.6556291 C96.921645,50.9576159 97.9649351,50.6437086 102.764069,46.4582781 C105.267965,44.3655629 107.667532,43.1099338 108.293506,43.5284768 C109.02381,43.9470199 109.232468,43.8423841 108.815152,43.1099338 C108.397835,42.3774834 109.754113,41.7496689 112.570996,41.3311258 C115.074892,41.0172185 119.561039,40.389404 122.690909,39.9708609 C128.011688,39.2384106 128.429004,39.0291391 129.263636,35.7854305 C129.785281,34.0066225 130.619913,32.4370861 131.141558,32.4370861 C131.767532,32.4370861 131.767532,33.3788079 131.350216,34.8437086 C130.306926,37.5642384 130.828571,40.807947 132.289177,40.807947 C132.810823,40.807947 133.228139,39.4476821 133.228139,37.7735099 C133.228139,35.994702 133.749784,34.3205298 134.271429,34.0066225 C135.001732,33.5880795 135.106061,34.8437086 134.688745,37.5642384 C133.645455,44.2609272 135.836364,42.6913907 137.818615,35.3668874 C141.157143,23.0198675 142.826407,18.8344371 144.182684,18.8344371 C146.999567,18.8344371 146.68658,20.8225166 142.722078,29.5072848 C137.401299,40.807947 136.879654,42.4821192 138.966234,43.3192053 C140.009524,43.7377483 140.948485,43.1099338 141.574459,41.4357616 C142.51342,38.7152318 144.704329,36.8317881 144.704329,38.610596 C144.704329,39.1337748 144.287013,39.9708609 143.661039,40.2847682 C143.139394,40.5986755 142.617749,41.4357616 142.617749,41.9589404 C142.617749,42.586755 143.139394,42.6913907 143.661039,42.3774834 C144.287013,42.0635762 144.704329,42.1682119 144.704329,42.7960265 C144.704329,44.4701987 142.826407,45.0980132 142.304762,43.7377483 C141.887446,42.6913907 141.678788,42.6913907 141.678788,43.6331126 C141.574459,44.3655629 142.826407,45.7258278 144.287013,46.7721854 C146.999567,48.5509934 147.103896,48.4463576 149.294805,45.7258278 C150.546753,44.1562914 152.007359,42.9006623 152.529004,42.9006623 C153.050649,42.9006623 152.111688,44.2609272 150.546753,45.9350993 L147.625541,48.9695364 L150.338095,53.2596026 C152.320346,56.3986755 153.467965,57.3403974 154.824242,56.8172185 C156.389177,56.189404 156.493506,56.3986755 155.345887,57.7589404 C154.198268,59.1192053 154.719913,59.5377483 158.684416,60.584106 C162.857576,61.6304636 167.65671,65.0834437 167.65671,67.0715232 C167.65671,67.4900662 168.908658,68.6410596 170.473593,69.5827815 C173.081818,71.3615894 173.394805,71.3615894 176.316017,69.5827815 C178.193939,68.4317881 179.654545,68.1178808 180.071861,68.7456954 C180.802165,70.0013245 186.957576,73.2450331 188.522511,73.2450331 C190.191775,73.2450331 189.774459,70.4198675 187.896537,69.6874172 C186.957576,69.3735099 185.183983,69.0596026 183.827706,69.0596026 C182.471429,69.0596026 181.010823,68.5364238 180.593506,67.9086093 C180.280519,67.2807947 178.819913,67.0715232 177.463636,67.3854305 C176.107359,67.8039735 174.95974,67.594702 174.95974,67.0715232 C174.95974,65.815894 177.567965,64.8741722 181.32381,64.8741722 C182.993074,64.8741722 185.288312,64.3509934 186.435931,63.618543 C188.000866,62.5721854 188.835498,62.6768212 190.504762,64.2463576 C193.217316,66.7576159 193.217316,65.815894 190.504762,57.0264901 C188.835498,51.5854305 188.000866,50.2251656 186.748918,50.6437086 C185.809957,51.0622517 184.45368,50.7483444 183.723377,50.1205298 C182.888745,49.4927152 181.532468,49.2834437 180.489177,49.7019868 C179.445887,50.2251656 178.193939,50.4344371 177.672294,50.3298013 C177.254978,50.2251656 176.211688,50.7483444 175.377056,51.3761589 C173.603463,52.8410596 173.499134,51.8993377 174.95974,49.0741722 C175.585714,48.0278146 176.524675,47.0860927 177.150649,47.0860927 C177.776623,47.0860927 179.445887,46.1443709 180.906494,44.9933775 C182.993074,43.4238411 183.932035,43.2145695 184.975325,44.0516556 C188.418182,46.981457 185.914286,40.5986755 179.445887,30.5536424 C176.524675,25.8450331 175.690043,25.1125828 174.438095,26.1589404 C173.603463,26.8913907 172.87316,28.3562914 172.87316,29.5072848 C172.87316,30.5536424 172.038528,31.7046358 171.099567,32.1231788 C170.056277,32.4370861 167.030736,34.6344371 164.318182,36.9364238 C161.501299,39.1337748 159.31039,40.5986755 159.31039,40.1801325 C159.31039,38.610596 164.52684,30.5536424 165.883117,30.0304636 C167.239394,29.5072848 171.82987,21.3456954 171.82987,19.6715232 C171.82987,19.2529801 169.638961,17.6834437 166.926407,16.0092715 L161.918615,12.8701987 L159.727706,15.5907285 C158.475758,17.0556291 157.22381,19.3576159 156.806494,20.7178808 C156.389177,21.9735099 155.554545,23.0198675 155.0329,23.0198675 C154.511255,23.0198675 152.633333,24.589404 150.85974,26.4728477 C147.834199,29.6119205 147.72987,29.7165563 148.355844,27.205298 C148.77316,25.7403974 149.920779,23.3337748 151.068398,21.7642384 C152.111688,20.194702 153.050649,18.1019868 153.050649,17.0556291 C153.050649,16.0092715 153.780952,14.0211921 154.719913,12.7655629 C156.284848,10.4635762 156.180519,10.3589404 149.503463,7.32450331 C145.747619,5.54569536 142.200433,4.18543046 141.678788,4.18543046 C139.592208,4.18543046 137.192641,9.62649007 137.818615,12.9748344 C138.34026,15.8 137.922944,17.1602649 135.314719,20.4039735 C133.645455,22.6013245 132.184848,25.1125828 132.080519,26.0543046 C132.080519,27.1006623 131.663203,26.786755 131.037229,25.2172185 C130.411255,23.4384106 130.411255,21.5549669 131.350216,18.9390728 C132.080519,16.8463576 132.706494,13.2887417 132.706494,10.986755 C132.810823,8.68476821 133.228139,5.96423841 133.645455,5.02251656 C134.375758,3.34834437 133.749784,3.13907285 127.490043,3.13907285 C123.734199,3.13907285 120.812987,3.55761589 121.125974,4.0807947 C121.438961,4.49933775 120.812987,5.75496689 119.665368,6.8013245 C118.517749,7.84768212 117.891775,8.9986755 118.204762,9.5218543 C118.517749,10.0450331 117.996104,11.7192053 117.161472,13.2887417 L115.596537,16.218543 L115.492208,12.0331126 C115.387879,4.60397351 115.387879,4.18543046 114.553247,4.18543046 C112.988312,4.18543046 101.512121,7.42913907 100.468831,8.1615894 C99.8428571,8.58013245 97.44329,9.62649007 95.1480519,10.3589404 C86.8017316,13.2887417 79.2900433,18.3112583 71.0480519,26.8913907 C61.4497835,36.7271523 57.4852814,43.8423841 53.4164502,57.8635762 C51.2255411,65.815894 51.0168831,67.3854305 52.2688312,69.1642384 C53.5207792,70.9430464 53.8337662,71.0476821 54.9813853,69.5827815 C56.8593074,67.3854305 58.4242424,67.594702 61.2411255,70.6291391 C63.0147186,72.5125828 64.3709957,73.0357616 65.8316017,72.6172185 C68.7528139,71.6754967 78.4554113,72.0940397 81.3766234,73.2450331 C84.2978355,74.3960265 84.7151515,74.3960265 85.6541126,73.5589404 Z M102.764069,69.0596026 C103.390043,69.0596026 104.74632,67.3854305 105.685281,65.397351 C106.624242,63.3046358 108.815152,60.6887417 110.484416,59.5377483 C112.883983,57.7589404 113.301299,57.0264901 112.258009,55.8754967 C111.527706,55.0384106 111.214719,54.0966887 111.527706,53.8874172 C111.840693,53.5735099 112.675325,54.0966887 113.405628,55.0384106 C114.553247,56.2940397 114.553247,57.0264901 113.614286,58.386755 C110.380087,62.781457 108.293506,66.3390728 108.606494,66.7576159 C108.815152,66.9668874 110.901732,66.1298013 113.092641,64.9788079 C118.41342,62.3629139 129.054978,59.5377483 131.97619,60.1655629 C133.228139,60.3748344 134.271429,60.1655629 134.271429,59.7470199 C134.271429,58.386755 127.072727,55.4569536 125.194805,56.189404 C123.734199,56.7125828 123.62987,56.5033113 124.464502,55.5615894 C125.925108,53.992053 125.090476,50.015894 123.421212,50.5390728 C122.795238,50.7483444 122.482251,52.0039735 122.58658,53.3642384 C123.003896,55.5615894 122.795238,55.6662252 121.334632,54.5152318 C119.874026,53.2596026 119.665368,53.3642384 120.291342,55.0384106 C120.812987,56.7125828 120.604329,56.7125828 118.830736,54.7245033 C116.32684,51.8993377 115.28355,51.6900662 116.222511,54.0966887 C116.952814,55.8754967 116.848485,55.8754967 114.24026,54.2013245 C112.049351,52.7364238 111.319048,52.6317881 110.380087,53.7827815 C109.649784,54.7245033 109.649784,55.4569536 110.588745,56.5033113 C111.632035,57.5496689 111.423377,57.7589404 109.441126,57.2357616 C107.667532,56.8172185 107.145887,57.0264901 107.563203,58.0728477 C107.87619,59.1192053 107.563203,59.3284768 106.415584,58.9099338 C105.267965,58.4913907 104.954978,58.7006623 105.476623,59.4331126 C105.893939,60.2701987 105.476623,60.6887417 104.329004,60.6887417 C102.764069,60.6887417 102.65974,60.8980132 104.016017,61.7350993 C104.850649,62.2582781 105.267965,62.8860927 105.059307,62.9907285 C104.74632,63.2 103.285714,64.2463576 101.720779,65.1880795 C100.155844,66.2344371 98.5909091,68.1178808 98.1735931,69.5827815 C97.8606061,71.0476821 97.025974,71.8847682 96.4,71.4662252 C95.774026,71.0476821 95.669697,71.3615894 96.191342,72.0940397 C96.712987,73.0357616 97.547619,72.8264901 99.2168831,71.2569536 C100.468831,70.0013245 102.033766,69.0596026 102.764069,69.0596026 Z M40.8969697,70.1059603 C41.2099567,69.5827815 41.0012987,69.0596026 40.4796537,69.0596026 C39.8536797,69.0596026 39.3320346,69.5827815 39.3320346,70.1059603 C39.3320346,70.7337748 39.5406926,71.1523179 39.7493506,71.1523179 C40.0623377,71.1523179 40.5839827,70.7337748 40.8969697,70.1059603 Z M101.929437,62.9907285 C101.929437,61.6304636 100.677489,60.6887417 99.6341991,61.3165563 C98.5909091,61.9443709 99.5298701,63.8278146 100.990476,63.8278146 C101.512121,63.8278146 101.929437,63.4092715 101.929437,62.9907285 Z M136.566667,59.4331126 C135.836364,58.7006623 135.314719,58.5960265 135.314719,59.2238411 C135.314719,59.8516556 135.627706,60.6887417 136.045022,61.002649 C136.358009,61.4211921 136.983983,61.5258278 137.29697,61.2119205 C137.505628,60.8980132 137.192641,60.0609272 136.566667,59.4331126 Z M108.189177,54.410596 C108.189177,53.8874172 107.980519,53.3642384 107.771861,53.3642384 C107.458874,53.3642384 106.937229,53.8874172 106.624242,54.410596 C106.311255,55.0384106 106.519913,55.4569536 107.041558,55.4569536 C107.667532,55.4569536 108.189177,55.0384106 108.189177,54.410596 Z M128.533333,51.8993377 C128.533333,50.5390728 128.220346,49.597351 127.80303,49.9112583 C127.281385,50.1205298 126.968398,51.2715232 126.968398,52.4225166 C126.968398,53.4688742 127.281385,54.410596 127.80303,54.410596 C128.220346,54.410596 128.533333,53.2596026 128.533333,51.8993377 Z M120.395671,50.8529801 C120.395671,50.015894 119.769697,49.597351 118.830736,49.9112583 C117.683117,50.4344371 117.683117,50.6437086 118.830736,51.3761589 C119.561039,51.8993377 120.187013,52.3178808 120.291342,52.3178808 C120.291342,52.3178808 120.395671,51.6900662 120.395671,50.8529801 Z M144.078355,23.3337748 C145.017316,21.4503311 145.330303,19.8807947 144.808658,19.8807947 C144.287013,19.8807947 143.348052,21.3456954 142.722078,23.1245033 C140.739827,28.7748344 141.261472,28.7748344 144.078355,23.3337748 Z" id="Shape"></path>
                    <path d="M106.102597,140.735099 C107.563203,139.898013 108.084848,139.270199 107.354545,139.165563 C106.624242,139.165563 106.311255,138.642384 106.728571,138.01457 C107.145887,137.177483 107.771861,137.282119 108.606494,138.119205 C109.441126,138.956291 109.232468,139.688742 107.771861,140.839735 C106.624242,141.676821 105.163636,142.304636 104.641991,142.304636 C104.016017,142.2 104.641991,141.572185 106.102597,140.735099 Z" id="Shape"></path>
                    <path d="M108.815152,127.969536 C108.189177,126.504636 108.293506,126.4 109.336797,127.341722 C110.0671,128.074172 110.380087,128.911258 110.0671,129.225166 C109.754113,129.539073 109.128139,129.015894 108.815152,127.969536 Z" id="Shape"></path>
                    <path d="M56.3376623,111.437086 C55.6073593,110.6 55.3987013,109.762914 55.9203463,109.449007 C56.4419913,109.135099 57.1722944,109.553642 57.4852814,110.495364 C58.3199134,112.797351 57.9025974,113.111258 56.3376623,111.437086 Z" id="Shape"></path>
                    <path d="M95.774026,134.770861 C95.669697,132.678146 98.3822511,129.748344 100.364502,129.748344 C102.138095,129.748344 104.329004,133.515232 103.70303,135.29404 C103.494372,136.02649 102.764069,135.503311 102.033766,134.143046 C100.468831,131.213245 98.3822511,131.213245 96.921645,134.247682 C96.087013,135.921854 95.774026,136.131126 95.774026,134.770861 Z" id="Shape"></path>
                    <path d="M136.670996,122.737748 C137.818615,121.482119 139.279221,120.749669 140.113853,121.063576 C142.200433,121.796026 141.887446,123.365563 139.800866,122.94702 C138.757576,122.842384 137.192641,123.260927 136.358009,123.888742 C135.523377,124.516556 135.627706,123.993377 136.670996,122.737748 Z" id="Shape"></path>
                    <path d="M141.574459,118.761589 C139.905195,116.77351 141.47013,104.531126 143.55671,103.798675 C144.6,103.484768 144.808658,103.903311 144.391342,105.577483 C143.974026,107.460927 144.078355,107.670199 145.330303,106.623841 C147.103896,105.15894 147.312554,106.833113 145.538961,108.716556 C144.495671,109.762914 144.495671,110.286093 145.330303,110.6 C146.060606,110.809272 146.373593,111.855629 146.269264,112.797351 C144.6,121.063576 144.078355,121.796026 141.574459,118.761589 Z" id="Shape"></path>
                    <path d="M147.312554,118.238411 C146.895238,117.610596 146.790909,115.831788 146.895238,114.262252 C147.103896,112.692715 146.895238,110.809272 146.373593,110.076821 C145.956277,109.344371 146.269264,108.611921 147.208225,108.193377 C148.251515,107.774834 148.877489,106.309934 148.877489,104.112583 C148.877489,100.24106 150.651082,98.2529801 152.111688,100.554967 C152.737662,101.601325 153.050649,100.97351 153.050649,98.6715232 C153.050649,95.0092715 155.450216,91.8701987 157.641126,92.7072848 C158.475758,93.0211921 159.31039,95.3231788 159.623377,98.1483444 C159.936364,100.868874 160.562338,104.845033 161.188312,107.042384 C162.127273,110.495364 162.022944,111.123179 160.562338,111.646358 C159.519048,112.064901 158.371429,112.797351 157.954113,113.425166 C157.432468,114.05298 157.328139,110.181457 157.641126,104.949669 C157.954113,98.9854305 157.745455,95.0092715 157.119481,94.5907285 C155.345887,93.5443709 154.928571,94.6953642 154.406926,101.70596 C154.093939,105.368212 153.363636,109.030464 152.633333,109.86755 C151.590043,111.227815 151.694372,111.227815 153.363636,109.972185 C154.928571,108.716556 155.137229,108.821192 155.137229,110.495364 C155.137229,111.646358 154.615584,113.215894 154.093939,114.05298 C153.259307,115.308609 153.050649,115.308609 153.050649,113.529801 C153.050649,111.646358 152.841991,111.646358 150.85974,114.05298 C149.712121,115.517881 148.981818,116.04106 149.399134,115.413245 C149.712121,114.680795 149.503463,114.05298 148.981818,114.05298 C147.416883,114.05298 147.521212,116.459603 149.086147,118.029139 C150.025108,118.970861 150.025108,119.284768 149.190476,119.284768 C148.460173,119.284768 147.625541,118.761589 147.312554,118.238411 Z" id="Shape"></path>
                    <path d="M122.795238,98.4622517 C124.360173,95.3231788 125.71645,94.9046358 126.864069,97.1019868 C128.116017,99.5086093 127.385714,100.450331 124.151515,100.450331 C122.064935,100.450331 121.856277,100.136424 122.795238,98.4622517 Z" id="Shape"></path>
                    <path d="M158.475758,88.7311258 C158.684416,87.1615894 159.519048,86.3245033 160.875325,86.3245033 C162.231602,86.3245033 163.066234,87.1615894 163.274892,88.7311258 C163.587879,90.6145695 163.170563,91.0331126 160.875325,91.0331126 C158.580087,91.0331126 158.162771,90.6145695 158.475758,88.7311258 Z" id="Shape"></path>
                    <path d="M63.3277056,118.238411 C61.9714286,117.296689 61.9714286,117.192053 63.3277056,117.296689 C64.1623377,117.296689 65.8316017,117.715232 66.9792208,118.238411 C69.0658009,119.180132 69.0658009,119.180132 66.9792208,119.180132 C65.8316017,119.180132 64.1623377,118.761589 63.3277056,118.238411 Z" id="Shape"></path>
                    <path d="M63.3277056,114.680795 C63.3277056,114.471523 64.0580087,114.05298 64.8926407,113.634437 C65.7272727,113.32053 66.4575758,113.529801 66.4575758,114.05298 C66.4575758,114.680795 65.7272727,115.099338 64.8926407,115.099338 C64.0580087,115.099338 63.3277056,114.890066 63.3277056,114.680795 Z" id="Shape"></path>
                    <path d="M84.1935065,108.821192 C84.1935065,108.298013 84.7151515,107.774834 85.2367965,107.774834 C85.8627706,107.774834 86.2800866,108.298013 86.2800866,108.821192 C86.2800866,109.449007 85.8627706,109.86755 85.2367965,109.86755 C84.7151515,109.86755 84.1935065,109.449007 84.1935065,108.821192 Z" id="Shape"></path>
                    <path d="M91.4965368,105.263576 C91.4965368,101.915232 93.3744589,100.764238 95.35671,102.856954 C97.44329,104.949669 96.4,107.774834 93.5831169,107.774834 C92.0181818,107.774834 91.4965368,107.042384 91.4965368,105.263576 Z" id="Shape"></path>
                    <path d="M76.8904762,101.496689 C76.8904762,99.9271523 77.4121212,99.4039735 78.7683983,99.613245 C79.7073593,99.8225166 80.5419913,100.659603 80.5419913,101.496689 C80.5419913,102.333775 79.7073593,103.170861 78.7683983,103.380132 C77.4121212,103.589404 76.8904762,103.066225 76.8904762,101.496689 Z" id="Shape"></path>
                    <path d="M26.0822511,87.1615894 C24.725974,86.9523179 23.682684,86.2198675 23.682684,85.592053 C23.682684,84.9642384 24.725974,84.7549669 26.0822511,85.1735099 C27.3341991,85.4874172 29.2121212,85.8013245 30.2554113,85.8013245 C31.1943723,85.8013245 32.0290043,86.3245033 32.0290043,86.8476821 C32.0290043,87.8940397 30.3597403,87.9986755 26.0822511,87.1615894 Z" id="Shape"></path>
                    <path d="M92.2268398,82.5576159 C90.1402597,81.4066225 88.3666667,80.2556291 88.3666667,80.0463576 C88.3666667,79.7324503 89.8272727,80.2556291 91.4965368,81.0927152 C94.8350649,82.8715232 99.3212121,82.3483444 98.1735931,80.3602649 C97.7562771,79.7324503 97.8606061,79.418543 98.3822511,79.6278146 C98.9038961,79.8370861 101.094805,80.7788079 103.285714,81.615894 C105.372294,82.4529801 107.145887,83.4993377 107.145887,83.9178808 C107.145887,84.4410596 105.78961,84.1271523 104.016017,83.1854305 C100.364502,81.3019868 97.234632,81.0927152 100.677489,82.9761589 C102.972727,84.3364238 102.972727,84.3364238 99.6341991,84.4410596 C97.7562771,84.4410596 94.4177489,83.6039735 92.2268398,82.5576159 Z" id="Shape"></path>
                    <path d="M57.2766234,79.418543 C55.9203463,78.8953642 54.4597403,78.6860927 53.9380952,79 C53.5207792,79.2092715 50.5995671,78.581457 47.574026,77.5350993 L41.9402597,75.5470199 L47.782684,75.8609272 C52.7904762,76.0701987 60.1978355,78.581457 60.1978355,80.0463576 C60.1978355,80.6741722 60.3021645,80.6741722 57.2766234,79.418543 Z M52.8948052,77.4304636 C52.0601732,76.9072848 50.9125541,76.384106 50.2865801,76.384106 C49.7649351,76.384106 49.9735931,76.9072848 50.8082251,77.4304636 C51.6428571,77.9536424 52.8948052,78.4768212 53.4164502,78.4768212 C54.0424242,78.4768212 53.7294372,77.9536424 52.8948052,77.4304636 Z" id="Shape"></path>
                    <path d="M37.7670996,78.4768212 C34.3242424,78.0582781 32.4463203,77.6397351 33.5939394,77.4304636 C36.9324675,76.9072848 43.5051948,77.4304636 45.9047619,78.4768212 C47.991342,79.3139073 47.991342,79.418543 46.1134199,79.3139073 C44.9658009,79.2092715 41.2099567,78.8953642 37.7670996,78.4768212 Z" id="Shape"></path>
                    <path d="M13.2497835,77.0119205 C13.2497835,76.0701987 13.9800866,75.3377483 14.9190476,75.3377483 C16.6926407,75.3377483 16.3796537,77.6397351 14.5017316,78.2675497 C13.7714286,78.4768212 13.2497835,77.9536424 13.2497835,77.0119205 Z" id="Shape"></path>
                    <path d="M18.0489177,74.7099338 C17.6316017,73.7682119 17.9445887,72.3033113 18.6748918,71.4662252 C19.7181818,70.1059603 20.1354978,70.1059603 21.1787879,71.6754967 C22.6393939,73.6635762 22.0134199,76.384106 20.0311688,76.384106 C19.3008658,76.384106 18.3619048,75.6516556 18.0489177,74.7099338 Z" id="Shape"></path>
                    <path d="M197.912121,85.8013245 C193.84329,83.6039735 192.278355,83.1854305 193.112987,84.6503311 C193.530303,85.1735099 192.174026,85.4874172 190.191775,85.3827815 C186.122944,85.0688742 174.95974,79.9417219 174.95974,78.3721854 C174.95974,77.8490066 177.04632,78.581457 179.445887,80.0463576 C184.349351,82.8715232 185.914286,83.2900662 184.766667,81.5112583 C184.45368,80.8834437 185.601299,81.0927152 187.270563,82.0344371 C191.443723,84.2317881 194.156277,84.1271523 190.296104,82.0344371 C184.870996,79.1046358 188.000866,79.5231788 193.947619,82.5576159 C197.181818,84.2317881 200.520346,85.8013245 201.250649,86.1152318 C201.980952,86.3245033 202.398268,86.8476821 202.085281,87.1615894 C201.772294,87.4754967 199.894372,86.8476821 197.912121,85.8013245 Z M188.522511,83.7086093 C187.687879,83.1854305 186.54026,82.6622517 185.914286,82.6622517 C185.392641,82.6622517 185.601299,83.1854305 186.435931,83.7086093 C187.270563,84.2317881 188.522511,84.7549669 189.044156,84.7549669 C189.67013,84.7549669 189.357143,84.2317881 188.522511,83.7086093 Z" id="Shape"></path>
                    <path d="M213.352814,74.605298 C212.309524,74.3960265 211.474892,73.6635762 211.474892,73.1403974 C211.474892,72.6172185 212.309524,72.1986755 213.352814,72.1986755 C216.274026,72.1986755 219.821212,73.4543046 219.821212,74.3960265 C219.821212,75.3377483 216.587013,75.4423841 213.352814,74.605298 Z" id="Shape"></path>
                    <path d="M143.869697,71.1523179 C141.678788,69.2688742 141.678788,69.1642384 143.348052,68.013245 C144.6,67.1761589 144.704329,66.9668874 143.661039,67.2807947 C142.722078,67.594702 140.635498,67.1761589 138.966234,66.4437086 L135.836364,65.0834437 L138.966234,64.9788079 C140.739827,64.9788079 143.243723,65.6066225 144.704329,66.4437086 C146.164935,67.2807947 146.68658,67.9086093 146.060606,68.013245 C144.495671,68.013245 144.704329,70.210596 146.269264,71.3615894 C146.790909,71.7801325 146.999567,72.3033113 146.790909,72.6172185 C146.477922,72.8264901 145.225974,72.1986755 143.869697,71.1523179 Z" id="Shape"></path>
                    <path d="M200.624675,78.6860927 C200.311688,78.1629139 200.729004,77.7443709 201.563636,77.7443709 C202.398268,77.7443709 202.815584,78.1629139 202.502597,78.6860927 C202.18961,79.1046358 201.772294,79.5231788 201.563636,79.5231788 C201.354978,79.5231788 200.937662,79.1046358 200.624675,78.6860927 Z" id="Shape"></path>
                    <path d="M166.926407,64.1417219 C167.239394,63.618543 169.430303,62.5721854 171.725541,61.7350993 C176.733333,60.1655629 180.071861,57.0264901 178.402597,55.3523179 C177.776623,54.7245033 176.420346,54.7245033 174.542424,55.4569536 C172.977489,55.9801325 170.682251,56.5033113 169.430303,56.3986755 C167.448052,56.2940397 167.552381,56.189404 170.264935,54.9337748 C174.646753,52.9456954 179.028571,52.9456954 179.863203,55.0384106 C180.802165,57.4450331 179.028571,59.8516556 174.855411,61.8397351 C169.847619,64.2463576 166.196104,65.2927152 166.926407,64.1417219 Z" id="Shape"></path>
                    <path d="M163.48355,60.8980132 C163.48355,60.2701987 164.109524,59.6423841 164.839827,59.3284768 C165.465801,59.1192053 165.778788,58.5960265 165.465801,58.1774834 C165.048485,57.7589404 163.900866,58.2821192 162.961905,59.3284768 C161.709957,60.584106 161.188312,60.6887417 161.501299,59.7470199 C162.335931,57.3403974 165.361472,55.8754967 166.61342,57.1311258 C167.343723,57.8635762 167.030736,58.805298 165.57013,60.1655629 C164.422511,61.2119205 163.48355,61.5258278 163.48355,60.8980132 Z" id="Shape"></path>
                    <path d="M153.259307,53.0503311 C150.546753,50.1205298 150.233766,48.6556291 152.737662,50.015894 C154.093939,50.8529801 155.763203,50.1205298 159.727706,47.0860927 C166.822078,41.8543046 171.099567,39.7615894 174.95974,39.7615894 C180.17619,39.7615894 178.924242,43.4238411 171.725541,48.7602649 C168.908658,50.8529801 166.61342,53.1549669 166.61342,53.992053 C166.61342,54.9337748 166.196104,55.3523179 165.57013,54.9337748 C163.900866,53.8874172 165.674459,51.3761589 170.890909,47.5046358 C175.690043,43.9470199 177.567965,40.807947 174.751082,40.807947 C169.74329,40.9125828 155.763203,51.1668874 156.910823,53.8874172 C157.745455,56.2940397 155.763203,55.7708609 153.259307,53.0503311 Z" id="Shape"></path>
                    <path d="M146.790909,44.1562914 C146.790909,41.6450331 156.389177,30.3443709 158.475758,30.3443709 C159.936364,30.3443709 159.31039,34.4251656 157.641126,35.3668874 C156.806494,35.8900662 153.98961,38.2966887 151.381385,40.7033113 C148.877489,43.2145695 146.790909,44.784106 146.790909,44.1562914 Z M156.702165,34.5298013 C157.745455,33.3788079 158.162771,32.4370861 157.536797,32.4370861 C157.015152,32.4370861 155.658874,33.3788079 154.615584,34.5298013 C153.572294,35.6807947 153.154978,36.6225166 153.780952,36.6225166 C154.302597,36.6225166 155.658874,35.6807947 156.702165,34.5298013 Z" id="Shape"></path>
                    <path d="M122.795238,30.3443709 C122.795238,29.8211921 123.316883,29.2980132 123.838528,29.2980132 C124.464502,29.2980132 124.881818,29.8211921 124.881818,30.3443709 C124.881818,30.9721854 124.464502,31.3907285 123.838528,31.3907285 C123.316883,31.3907285 122.795238,30.9721854 122.795238,30.3443709 Z" id="Shape"></path>
                    <path d="M99.8428571,68.1178808 C99.8428571,67.594702 100.57316,66.9668874 101.407792,66.5483444 C102.242424,66.2344371 102.972727,66.4437086 102.972727,66.8622517 C102.972727,67.3854305 102.242424,68.013245 101.407792,68.4317881 C100.57316,68.7456954 99.8428571,68.5364238 99.8428571,68.1178808 Z" id="Shape"></path>
                </g>
            </g>
        </g>
    </g>
</svg>